<?xml version="1.0" standalone="no"?>
<!DOCTYPE svg PUBLIC "-//W3C//DTD SVG 1.1//EN" "http://www.w3.org/Graphics/SVG/1.1/DTD/svg11.dtd" >
<svg xmlns="http://www.w3.org/2000/svg">
<metadata>
This is a custom SVG webfont generated by Font Squirrel.
Foundry     : RZF
</metadata>
<defs>
<font id="webfontPxRq1v5J" horiz-adv-x="1091" >
<font-face units-per-em="2048" ascent="1638" descent="-410" />
<missing-glyph horiz-adv-x="491" />
<glyph unicode=" "  horiz-adv-x="491" />
<glyph unicode="&#x09;" horiz-adv-x="491" />
<glyph unicode="&#xa0;" horiz-adv-x="491" />
<glyph unicode="!" horiz-adv-x="679" d="M260 0v223h229v-223h-229zM457 434h-164l-45 1024h254z" />
<glyph unicode="&#x22;" horiz-adv-x="909" d="M160 1067v391h207v-391h-207zM543 1067v391h207v-391h-207z" />
<glyph unicode="#" horiz-adv-x="1376" d="M590 872l-41 -254h280l39 254h-278zM1087 872l-40 -254h161v-192h-192l-68 -426h-217l68 426h-281l-65 -426h-220l68 426h-162v192h193l41 254h-166v193h194l64 401h219l-63 -401h278l64 401h217l-64 -401h160v-193h-189z" />
<glyph unicode="$" horiz-adv-x="1245" d="M920 410q0 100 -58 151q-33 31 -69.5 42t-96.5 20q-8 2 -18 2v-435q117 10 179.5 68t62.5 152zM547 1274q-104 -10 -162.5 -70.5t-58.5 -152.5q0 -86 55 -136q57 -53 166 -67v426zM1139 416q0 -90 -32 -164t-89 -128t-139 -88t-183 -42v-227h-168v221q-150 6 -261 50 t-206 142l148 146q72 -72 152.5 -104t185.5 -36v455l-53 6q-86 10 -157 42t-118 75q-109 102 -108 278q0 178 110.5 292t306.5 132v185h168v-183q123 -8 216.5 -47t174.5 -116l-141 -140q-104 98 -268 111v-442l70 -11q100 -16 162.5 -40.5t109.5 -67.5q119 -104 119 -299z " />
<glyph unicode="%" horiz-adv-x="1724" d="M535 1186q0 147 -129 147t-130 -147v-195q0 -145 130 -145q129 0 129 145v195zM692 985q0 -129 -82 -203.5t-204 -74.5q-123 0 -205 74.5t-82 203.5v207q0 63 21.5 115.5t60.5 89.5t91 56.5t114 19.5q61 0 113 -19.5t91 -56.5t60.5 -89.5t21.5 -115.5v-207zM602 0h-168 l688 1458h166zM1448 467q0 147 -129 147t-129 -147v-195q0 -147 129 -147t129 147v195zM1606 266q0 -66 -21.5 -117t-60.5 -87.5t-91.5 -56t-113.5 -19.5t-113.5 19.5t-91.5 56t-60.5 88t-21.5 116.5v207q0 63 21.5 115.5t60.5 89.5t91 56.5t114 19.5q61 0 113.5 -19.5 t91.5 -56.5t60.5 -89t21.5 -116v-207z" />
<glyph unicode="&#x26;" horiz-adv-x="1495" d="M543 702q-49 -35 -86 -64.5t-61.5 -61t-37 -68.5t-12.5 -82q0 -111 74 -179.5t190 -68.5q78 0 143.5 25.5t135.5 87.5zM778 1143q0 61 -41 103t-104 42q-66 0 -105 -40t-39 -103q0 -41 27 -85t86 -116l70 47q51 35 78.5 70t27.5 82zM1014 143q-37 -33 -78 -61.5t-90 -49 t-106.5 -32.5t-129.5 -12q-227 0 -349 115.5t-122 318.5q0 76 22.5 134t62.5 106.5t92.5 89.5t111.5 82q-70 80 -111 151.5t-41 161.5q0 70 26 129t73 102t112.5 67.5t145.5 24.5q154 0 250 -92t96 -233q0 -82 -41 -144.5t-115 -113.5l-106 -74l307 -367q41 57 58.5 125 t19.5 168h201q-4 -147 -39 -254.5t-107 -193.5l244 -291h-268z" />
<glyph unicode="'" horiz-adv-x="526" d="M160 1067v391h207v-391h-207z" />
<glyph unicode="(" horiz-adv-x="649" d="M389 -193l-20 21q-55 55 -88 92t-58 82q-29 51 -38 106.5t-9 131.5v979q0 76 9.5 131t37.5 106q25 45 57.5 82t88.5 92l20 21l141 -142l-22 -22q-37 -37 -56.5 -58.5t-35.5 -54.5q-31 -59 -31 -168v-954q0 -111 31 -168q18 -33 36.5 -54.5t55.5 -58.5l22 -22z" />
<glyph unicode=")" horiz-adv-x="649" d="M475 240q0 -74 -10 -130.5t-39 -107.5q-27 -47 -61.5 -87t-92.5 -97l-10 -11l-143 144l16 16q37 37 57.5 60.5t38.5 58.5q31 57 31 166v954q0 106 -31 166q-18 35 -38.5 58.5t-57.5 60.5l-16 16l143 144l10 -11q61 -61 94 -99t60 -85q29 -51 39 -107.5t10 -129.5v-979z " />
<glyph unicode="*" horiz-adv-x="993" d="M793 821l-228 142l8 -269h-153l8 269l-227 -142l-76 133l235 125l-235 127l76 133l227 -141l-8 266h153l-8 -266l228 141l75 -133l-235 -127l235 -125z" />
<glyph unicode="+" d="M643 461v-344h-194v344h-345v194h345v342h194v-342h344v-194h-344z" />
<glyph unicode="," horiz-adv-x="557" d="M160 -317v555h237v-361z" />
<glyph unicode="-" horiz-adv-x="872" d="M137 471v195h598v-195h-598z" />
<glyph unicode="." horiz-adv-x="569" d="M160 0v250h250v-250h-250z" />
<glyph unicode="/" horiz-adv-x="778" d="M201 -152h-201l584 1762h200z" />
<glyph unicode="0" d="M758 1047q0 106 -57.5 171.5t-155.5 65.5t-154.5 -63.5t-56.5 -173.5v-635q0 -106 56 -172t155 -66q98 0 155.5 65.5t57.5 172.5v635zM967 406q0 -190 -125 -308q-117 -111 -297 -110q-86 0 -163 28.5t-134 81.5q-123 117 -123 308v647q0 190 123 307q57 53 134 81.5 t163 28.5q180 0 297 -110q125 -117 125 -307v-647z" />
<glyph unicode="1" d="M518 0v1231l-285 -250v231l285 246h209v-1458h-209z" />
<glyph unicode="2" d="M129 0v186l561 682q41 51 59.5 95.5t18.5 99.5q0 100 -56.5 160.5t-156.5 60.5q-92 0 -153.5 -54t-61.5 -171h-209q0 184 119 297q121 115 305 114q190 0 305 -112q117 -111 117 -297q0 -45 -7 -83t-23.5 -74t-43 -74.5t-63.5 -84.5l-457 -559h594v-186h-848z" />
<glyph unicode="3" d="M774 754q98 -43 151.5 -128t53.5 -216q0 -203 -127 -314t-320 -110q-188 0 -315 102q-125 104 -131 307h209q6 -111 72.5 -166t164.5 -55q104 0 171 64.5t67 177.5t-60.5 176t-183.5 63h-34v183h34q111 0 166.5 58t55.5 163q0 106 -61.5 165.5t-154.5 59.5 q-94 0 -152 -55t-67 -154h-209q8 180 129 289t299 109q184 0 306 -115q119 -113 118 -293q0 -113 -47 -190.5t-135 -120.5z" />
<glyph unicode="4" d="M864 219v-219h-202v219h-590v195l514 1044h225l-512 -1044h363v340h202v-340h156v-195h-156z" />
<glyph unicode="5" d="M981 487q0 -133 -24.5 -223t-98.5 -164q-53 -53 -130 -83.5t-177 -30.5t-180 30.5t-131 81.5q-55 55 -80 123t-31 156h209q12 -98 63.5 -150.5t149.5 -52.5q94 0 151 57q41 41 55.5 104.5t14.5 151.5q0 147 -47 226.5t-166 79.5q-86 0 -137 -37t-70 -94h-190v796h786 v-186h-598v-385q39 39 101.5 61.5t140.5 22.5q168 0 262 -94q76 -76 101.5 -171.5t25.5 -218.5z" />
<glyph unicode="6" d="M768 428q0 111 -59.5 181.5t-163.5 70.5q-100 0 -160.5 -67.5t-60.5 -184.5t61 -185.5t160 -68.5q98 0 160.5 68.5t62.5 185.5zM977 432q0 -197 -121 -321q-121 -123 -309 -123q-195 0 -314 116q-119 119 -118 320q0 82 27.5 167t80.5 191l332 676h223l-313 -627 q55 23 129 23q162 0 272 -117q111 -117 111 -305z" />
<glyph unicode="7" d="M510 0h-225l489 1272h-444v-230h-201v416h868v-186z" />
<glyph unicode="8" d="M784 416q0 102 -69 172q-72 72 -170 71q-98 0 -170 -71q-70 -70 -70 -172t70 -172t170 -70t170 70q69 70 69 172zM762 1061q0 98 -61.5 160.5t-155.5 62.5t-154.5 -62.5t-60.5 -160.5t60.5 -159.5t154.5 -61.5t155.5 61.5t61.5 159.5zM995 412q0 -193 -131 -312 q-61 -55 -143 -83.5t-176 -28.5q-193 0 -318 112q-63 55 -97 134t-34 178q0 123 56.5 205.5t144.5 136.5q-78 47 -127 124.5t-49 188.5q0 90 32.5 165t90 128t134.5 81.5t167 28.5q88 0 165.5 -28.5t136 -81.5t91.5 -128t33 -165q0 -111 -49.5 -188.5t-126.5 -124.5 q88 -53 144 -136t56 -206z" />
<glyph unicode="9" d="M768 1030q0 117 -62.5 185.5t-160.5 68.5t-159.5 -68.5t-61.5 -185.5q0 -111 58 -181.5t163 -70.5q100 0 161.5 67.5t61.5 184.5zM977 1034q0 -82 -27.5 -167t-81.5 -191l-331 -676h-224l314 627q-55 -23 -131 -23q-162 0 -273 117q-109 119 -108 305q0 201 118 322 q119 123 312 122q193 0 311 -118q121 -117 121 -318z" />
<glyph unicode=":" horiz-adv-x="620" d="M213 0v250h248v-250h-248zM213 584v250h248v-250h-248z" />
<glyph unicode=";" horiz-adv-x="620" d="M217 -317v555h238v-361zM213 584v250h248v-250h-248z" />
<glyph unicode="&#x3c;" horiz-adv-x="2103" d="M471 469l707 -702h-269l-803 800l803 803h269l-707 -702h1524v-199h-1524z" />
<glyph unicode="=" d="M104 272v195h883v-195h-883zM104 670v194h883v-194h-883z" />
<glyph unicode="&#x3e;" horiz-adv-x="2103" d="M1194 -233h-268l706 702h-1526v199h1526l-706 702h268l803 -803z" />
<glyph unicode="?" horiz-adv-x="1046" d="M449 0v223h231v-223h-231zM963 1079q0 -68 -26 -127t-73 -125l-157 -221q-16 -23 -26.5 -54.5t-10.5 -55.5v-62h-209v72q0 61 16.5 107t52.5 96l160 215q63 86 64 155q0 88 -56.5 146.5t-144.5 58.5q-92 0 -145.5 -59.5t-53.5 -147.5h-209q0 86 31 159t86 125t130 80.5 t161 28.5q176 0 289 -104q57 -53 89 -126t32 -161z" />
<glyph unicode="@" horiz-adv-x="1507" d="M1176 479q0 150 -45.5 234t-163.5 84q-61 0 -102.5 -23.5t-64 -65.5t-31.5 -100.5t-9 -128.5q0 -152 39 -223q25 -45 65.5 -68.5t102.5 -23.5q119 0 164 82.5t45 232.5zM1180 0v102q-51 -59 -111.5 -87.5t-148.5 -28.5q-166 0 -269 114q-29 31 -46 67t-27.5 80 t-14.5 101.5t-4 130.5q0 74 4 129.5t14.5 100.5t27 80.5t42.5 66.5q47 55 115.5 86t155.5 31q160 0 258 -115v125q0 76 -17.5 127t-58.5 94q-76 76 -217 76h-258q-70 0 -122 -17.5t-93 -58.5q-45 -45 -60.5 -94t-15.5 -127v-639q0 -43 5 -74.5t16.5 -57.5t31 -47.5 t49.5 -45.5l-143 -144q-94 78 -127 150q-35 76 -35 209v651q0 233 121 358q121 121 352 121h299q229 0 350 -121q66 -66 94.5 -152.5t28.5 -205.5v-989z" />
<glyph unicode="A" horiz-adv-x="1280" d="M645 1128l-227 -647h448zM1028 0l-100 293h-576l-100 -293h-236l535 1458h178l535 -1458h-236z" />
<glyph unicode="B" horiz-adv-x="1357" d="M999 422q0 98 -63.5 159.5t-175.5 61.5h-348v-444h348q113 0 176 62.5t63 160.5zM977 1051q0 100 -63.5 154.5t-174.5 54.5h-327v-418h327q111 0 174.5 54.5t63.5 154.5zM1221 412q0 -98 -32 -175t-89.5 -129.5t-139 -80t-180.5 -27.5h-590v1458h568q205 0 322.5 -106.5 t117.5 -292.5q0 -111 -58.5 -194t-138.5 -115q94 -37 157 -123t63 -215z" />
<glyph unicode="C" horiz-adv-x="1286" d="M1182 436q-18 -106 -64.5 -190t-114 -141.5t-154.5 -87t-187 -29.5q-227 0 -383 155q-98 98 -123 232q-6 33 -10.5 67.5t-5.5 75.5t-2 92.5t-1 118.5v122q0 52 2 89q2 39 6.5 74t10.5 67q14 68 42.5 125.5t80.5 108.5q156 156 383 155q205 0 344 -115.5t176 -332.5h-226 q-27 117 -102.5 183.5t-191.5 66.5q-63 0 -120 -23.5t-96 -64.5q-27 -29 -44 -61.5t-26 -83t-13.5 -125t-4.5 -185.5q0 -113 3.5 -186.5t13.5 -122.5t26.5 -82t44.5 -64q39 -41 95.5 -64.5t120.5 -23.5q119 0 194.5 66.5t101.5 183.5h224z" />
<glyph unicode="D" horiz-adv-x="1363" d="M1006 739q0 92 -4.5 160t-10.5 113q-8 47 -22.5 84t-40.5 65q-90 98 -248 99h-268v-1061h268q158 0 248 98q25 29 40 66.5t23 90t11.5 123t3.5 162.5zM1227 739q0 -242 -27 -372q-29 -137 -121 -230q-137 -137 -377 -137h-512v1458h512q240 0 377 -137q92 -92 121 -223 q12 -63 19.5 -152.5t7.5 -206.5z" />
<glyph unicode="E" horiz-adv-x="1234" d="M190 0v1458h932v-198h-710v-426h606v-197h-606v-438h710v-199h-932z" />
<glyph unicode="F" horiz-adv-x="1198" d="M412 1260v-445h606v-199h-606v-616h-222v1458h932v-198h-710z" />
<glyph unicode="G" horiz-adv-x="1329" d="M1194 565q0 -143 -29.5 -239.5t-101.5 -171.5q-82 -86 -182.5 -126t-218.5 -40q-227 0 -383 155q-98 98 -123 232q-6 33 -10.5 67.5t-5.5 75.5t-2 92.5t-1 118.5v122q0 52 2 89q2 39 6.5 74t10.5 67q14 68 42.5 125.5t80.5 108.5q156 156 383 155q219 0 358 -127 q137 -127 172 -325h-223q-29 123 -107 188.5t-200 65.5q-63 0 -120 -23.5t-96 -66.5q-27 -31 -44 -63t-26 -81t-13.5 -122.5t-4.5 -186.5t3.5 -186.5t13.5 -122.5t26.5 -82t44.5 -64q39 -41 95.5 -64.5t120.5 -23.5q147 0 237 103q74 86 74 229v82h-311v188h532v-223z" />
<glyph unicode="H" horiz-adv-x="1415" d="M1004 0v637h-592v-637h-222v1458h222v-622h592v622h221v-1458h-221z" />
<glyph unicode="I" horiz-adv-x="602" d="M190 0v1458h222v-1458h-222z" />
<glyph unicode="J" horiz-adv-x="1036" d="M866 461q0 -221 -139 -348q-137 -125 -346 -125q-113 0 -196 32.5t-158 108.5l147 145q45 -45 89 -66.5t118 -21.5q125 0 194.5 75t69.5 216v981h221v-997z" />
<glyph unicode="K" horiz-adv-x="1347" d="M1067 0l-410 719l-245 -295v-424h-222v1458h222v-733l596 733h270l-473 -571l522 -887h-260z" />
<glyph unicode="L" horiz-adv-x="1175" d="M190 0v1458h222v-1259h702v-199h-924z" />
<glyph unicode="M" horiz-adv-x="1665" d="M1255 0v975l-335 -711h-164l-344 711v-975h-222v1458h222l426 -907l417 907h222v-1458h-222z" />
<glyph unicode="N" horiz-adv-x="1478" d="M1085 0l-442 676l-231 350v-1026h-222v1458h203l416 -631l258 -393v1024h221v-1458h-203z" />
<glyph unicode="O" horiz-adv-x="1323" d="M965 729q0 111 -3.5 184.5t-12.5 122.5t-25.5 82t-44.5 64q-39 43 -96.5 66.5t-120.5 23.5t-121 -23.5t-97 -66.5q-29 -29 -45 -62t-25 -82t-12.5 -122.5t-3.5 -186.5q0 -111 3.5 -184.5t12.5 -123.5t26.5 -83t43.5 -62q39 -41 96.5 -65.5t121.5 -24.5q63 0 120.5 25 t96.5 65q27 31 44 64t26 81t12.5 120.5t3.5 187.5zM1186 729q0 -68 -1 -120t-3 -93t-6.5 -77t-10.5 -68q-12 -68 -40.5 -123t-77.5 -105q-156 -156 -385 -155q-227 0 -383 155q-98 98 -123 232q-6 33 -10.5 67.5t-5.5 75.5t-2 92.5t-1 118.5v122q0 52 2 89q2 39 6.5 74 t10.5 67q14 68 42.5 125.5t80.5 108.5q156 156 383 155q229 0 385 -155q94 -94 118 -228q6 -35 10.5 -69.5t6.5 -75.5t3 -93t1 -120z" />
<glyph unicode="P" horiz-adv-x="1288" d="M989 1016q0 113 -70.5 178.5t-187.5 65.5h-319v-486h319q117 0 187.5 64.5t70.5 177.5zM1210 1016q0 -193 -127 -316q-131 -127 -340 -127h-331v-573h-222v1458h553q213 0 340 -125q127 -127 127 -317z" />
<glyph unicode="Q" horiz-adv-x="1323" d="M965 729q0 111 -3.5 184.5t-12.5 122.5t-25.5 82t-44.5 64q-39 43 -96.5 66.5t-120.5 23.5t-121 -23.5t-97 -66.5q-29 -29 -45 -62t-25 -82t-12.5 -122.5t-3.5 -186.5q0 -111 3.5 -184.5t12.5 -123.5t26.5 -83t43.5 -62q39 -41 96.5 -65.5t121.5 -24.5q84 0 149 47 l-154 154l123 123l142 -141q12 27 21 58.5t13.5 73.5t6.5 98t2 130zM1112 -66l-145 146q-133 -92 -305 -92q-227 0 -383 155q-98 98 -123 232q-6 33 -10.5 67.5t-5.5 75.5t-2 92.5t-1 118.5v122q0 52 2 89q2 39 6.5 74t10.5 67q14 68 42.5 125.5t80.5 108.5q156 156 383 155 q229 0 385 -155q94 -94 118 -228q6 -35 10.5 -69.5t6.5 -75.5t3 -93t1 -120q0 -117 -4 -201t-13 -137q-16 -111 -77 -192l143 -142z" />
<glyph unicode="R" horiz-adv-x="1341" d="M987 1030q0 106 -68.5 168t-179.5 62h-327v-457h327q113 0 180.5 60.5t67.5 166.5zM995 0l-307 614h-276v-614h-222v1458h566q207 0 327 -119q125 -119 125 -307q0 -150 -80.5 -251t-209.5 -136l335 -645h-258z" />
<glyph unicode="S" horiz-adv-x="1208" d="M1102 416q0 -199 -146 -314q-145 -115 -378 -114q-168 0 -290 44t-227 148l148 146q78 -76 166 -108t207 -32q143 0 222 58.5t79 165.5q0 96 -58 151q-27 27 -61.5 39t-97.5 23l-86 12l-86 12q-178 25 -277 117q-106 100 -106 278q0 193 131 310q131 119 356 118 q147 0 252.5 -38.5t200.5 -126.5l-142 -140q-63 61 -141 87t-176 26q-125 0 -195.5 -63.5t-70.5 -163.5q0 -86 55 -136q59 -53 164 -67l86 -12l80 -13q100 -16 162.5 -40.5t109.5 -67.5q119 -104 119 -299z" />
<glyph unicode="T" horiz-adv-x="1146" d="M684 1260v-1260h-221v1260h-402v198h1024v-198h-401z" />
<glyph unicode="U" horiz-adv-x="1382" d="M1214 492q0 -113 -39.5 -205t-110.5 -159t-167 -103.5t-207 -36.5t-207 36.5t-165.5 103.5t-109.5 159t-40 205v966h221v-956q0 -147 82 -231.5t219 -84.5t220 84t83 232v956h221v-966z" />
<glyph unicode="V" horiz-adv-x="1155" d="M662 0h-173l-479 1458h230l335 -1061l336 1061h234z" />
<glyph unicode="W" horiz-adv-x="1783" d="M1380 0h-192l-297 1022l-295 -1022h-193l-380 1458h233l254 -1042l293 1042h178l293 -1042l254 1042h233z" />
<glyph unicode="X" horiz-adv-x="1183" d="M907 0l-317 559l-316 -559h-254l451 748l-422 710h254l287 -522l289 522h254l-422 -710l452 -748h-256z" />
<glyph unicode="Y" horiz-adv-x="1114" d="M668 600v-600h-222v600l-436 858h242l305 -641l305 641h242z" />
<glyph unicode="Z" horiz-adv-x="1130" d="M98 0v190l674 1070h-645v198h905v-180l-678 -1079h678v-199h-934z" />
<glyph unicode="[" horiz-adv-x="710" d="M176 -152v1762h447v-187h-238v-1388h238v-187h-447z" />
<glyph unicode="\" horiz-adv-x="778" d="M578 -152l-578 1745h201l577 -1745h-200z" />
<glyph unicode="]" horiz-adv-x="710" d="M88 -152v185h242v1392h-242v185h447v-1762h-447z" />
<glyph unicode="^" horiz-adv-x="1169" d="M813 821l-229 424l-230 -424h-217l352 652h191l350 -652h-217z" />
<glyph unicode="_" horiz-adv-x="1169" d="M0 -352v143h1169v-143h-1169z" />
<glyph unicode="`" horiz-adv-x="1024" d="M461 1227l-228 332h232l153 -332h-157z" />
<glyph unicode="a" horiz-adv-x="1085" d="M721 459h-244q-186 0 -186 -150q0 -147 190 -147q68 0 112 11t83 48q45 45 45 154v84zM725 0v94q-57 -57 -118.5 -81.5t-157.5 -24.5q-184 0 -279 94q-82 84 -82 223q0 135 92 217t266 82h275v74q0 100 -54.5 147t-172.5 47q-86 0 -135.5 -22.5t-92.5 -77.5l-137 129 q72 84 156 117t217 33q428 0 428 -357v-694h-205z" />
<glyph unicode="b" horiz-adv-x="1132" d="M807 520q0 74 -8 136.5t-31 108.5t-64.5 72.5t-111.5 26.5t-112 -25.5t-65.5 -71.5t-31.5 -109.5t-8 -137.5t8 -137.5t31.5 -109.5t65.5 -72.5t112 -26.5t111.5 26.5t64.5 74t31 109.5t8 136zM1016 520q0 -147 -23.5 -258.5t-93.5 -181.5q-43 -43 -109.5 -67.5 t-144.5 -24.5q-88 0 -152.5 27.5t-121.5 95.5v-111h-205v1458h209v-524q55 66 119.5 91.5t152.5 25.5q78 0 143.5 -25t108.5 -68q70 -70 93.5 -180.5t23.5 -257.5z" />
<glyph unicode="c" horiz-adv-x="993" d="M918 135q-74 -78 -153 -112.5t-190 -34.5q-90 0 -174 29.5t-148.5 94t-102 165t-37.5 243.5t37.5 244.5t102 165t148.5 92.5t174 29q111 0 190 -34t153 -112l-144 -139q-49 55 -93 76.5t-106 21.5q-123 0 -192 -92q-33 -41 -47 -100.5t-14 -151.5t14 -152.5t47 -101.5 q70 -92 192 -92q61 0 105.5 21.5t93.5 76.5z" />
<glyph unicode="d" horiz-adv-x="1132" d="M758 520q0 74 -8.5 136.5t-31 108.5t-64.5 72.5t-111 26.5q-70 0 -112 -25.5t-65.5 -71.5t-31.5 -109.5t-8 -137.5t8 -137.5t31.5 -109.5t65.5 -72.5t112 -26.5t111.5 26.5t64 74t31 109.5t8.5 136zM762 0v111q-55 -68 -121 -95.5t-154 -27.5q-78 0 -144.5 24.5 t-109.5 67.5q-70 70 -93 181.5t-23 258.5t23.5 258t92.5 180q43 43 109 68t143 25q88 0 154 -26t119 -91v524h209v-1458h-205z" />
<glyph unicode="e" horiz-adv-x="1103" d="M786 604q-2 47 -7 77t-21 64q-27 59 -80 95.5t-125 36.5t-127 -36t-80 -96q-14 -33 -19 -61.5t-8 -79.5h467zM319 459q0 -135 70 -213t195 -78q84 0 139 24.5t113 81.5l133 -124q-43 -43 -84 -73t-87 -50.5t-99.5 -29.5t-118.5 -9q-100 0 -185.5 28.5t-148 92t-98 165 t-35.5 246.5q0 252 118.5 391.5t321.5 139.5q207 0 324 -138q117 -139 116 -362v-92h-674z" />
<glyph unicode="f" horiz-adv-x="671" d="M408 860v-860h-209v860h-119v160h119v160q0 61 18.5 113.5t55 91t90 61t120.5 22.5h131v-178h-92q-115 0 -114 -121v-149h206v-160h-206z" />
<glyph unicode="g" horiz-adv-x="1124" d="M750 539q0 66 -7.5 125t-30 103t-63.5 70.5t-110 26.5q-68 0 -110 -26.5t-65.5 -70.5t-30.5 -103.5t-7 -124.5q0 -66 7 -125.5t30.5 -104.5t65.5 -70.5t110 -25.5q70 0 110.5 25.5t63 70.5t30 104.5t7.5 125.5zM958 6q0 -195 -120 -315q-121 -123 -324 -123 q-119 0 -202 30.5t-165 106.5l134 133q53 -49 102 -70.5t123 -21.5q125 0 184.5 74t59.5 190v133q-55 -66 -119 -92t-150 -26q-156 0 -248 92q-70 70 -93 169t-23 253t23.5 253t92.5 169q90 90 250 90q86 0 151.5 -28t121.5 -95v110h202v-1032z" />
<glyph unicode="h" horiz-adv-x="1159" d="M795 0v637q0 113 -58.5 170t-150.5 57t-151.5 -57t-59.5 -170v-637h-209v1458h209v-524q106 117 268 117q172 0 266.5 -103.5t94.5 -277.5v-670h-209z" />
<glyph unicode="i" horiz-adv-x="540" d="M166 0v1038h209v-1038h-209zM160 1243v221h221v-221h-221z" />
<glyph unicode="j" horiz-adv-x="540" d="M375 -137q0 -125 -72 -206t-213 -81h-129v178h92q61 0 87 30t26 91v1163h209v-1175zM160 1243v221h221v-221h-221z" />
<glyph unicode="k" horiz-adv-x="1122" d="M819 0l-291 479l-153 -174v-305h-209v1458h209v-899l403 479h254l-360 -407l405 -631h-258z" />
<glyph unicode="l" horiz-adv-x="636" d="M444 0q-141 0 -212.5 81t-71.5 206v1171h209v-1159q0 -61 25.5 -91t86.5 -30h92v-178h-129z" />
<glyph unicode="m" horiz-adv-x="1796" d="M1432 0v633q0 117 -57.5 174t-151.5 57q-92 0 -153.5 -57t-61.5 -164v-643h-209v633q0 117 -57.5 174t-151.5 57t-154.5 -57t-60.5 -174v-633h-209v1038h205v-104q51 57 123.5 87t152.5 30q197 0 295 -152q127 152 326 152q80 0 147.5 -25t114.5 -70q111 -109 110 -292 v-664h-208z" />
<glyph unicode="n" horiz-adv-x="1163" d="M799 0v633q0 117 -57.5 174t-151.5 57t-154.5 -57t-60.5 -174v-633h-209v1038h205v-104q106 117 276 117q160 0 256 -95q57 -55 81 -126.5t24 -165.5v-664h-209z" />
<glyph unicode="o" horiz-adv-x="1099" d="M774 520q0 104 -14.5 173t-57.5 112q-59 59 -153 59q-92 0 -152 -59q-43 -43 -57 -111.5t-14 -173.5q0 -104 14 -172.5t57 -111.5q61 -61 152 -62q92 0 153 62q43 43 57.5 111.5t14.5 172.5zM983 520q0 -141 -25.5 -239.5t-97.5 -169.5q-53 -57 -132 -90t-179 -33 t-177 32.5t-132 90.5q-70 74 -96.5 171t-26.5 238t26.5 238.5t96.5 169.5q55 57 132 90t177 33t178 -33t133 -90q70 -72 96.5 -169.5t26.5 -238.5z" />
<glyph unicode="p" horiz-adv-x="1132" d="M807 520q0 74 -8 136.5t-31 108.5t-64.5 72.5t-111.5 26.5t-112 -25.5t-65.5 -71.5t-31.5 -109.5t-8 -137.5t8 -137.5t31.5 -109.5t65.5 -72.5t112 -26.5t111.5 26.5t64.5 74t31 109.5t8 136zM1016 520q0 -147 -23.5 -258.5t-93.5 -181.5q-43 -43 -108.5 -67.5 t-143.5 -24.5q-86 0 -151.5 26.5t-120.5 91.5v-526h-209v1458h205v-110q57 68 121.5 95.5t152.5 27.5q78 0 144.5 -25t109.5 -68q70 -70 93.5 -180.5t23.5 -257.5z" />
<glyph unicode="q" horiz-adv-x="1132" d="M758 520q0 74 -8.5 136.5t-31 108.5t-64.5 72.5t-111 26.5q-70 0 -112 -25.5t-65.5 -71.5t-31.5 -109.5t-8 -137.5t8 -137.5t31.5 -109.5t65.5 -72.5t112 -26.5t111.5 26.5t64 74t31 109.5t8.5 136zM758 -420v526q-55 -66 -120 -92t-153 -26q-78 0 -143.5 24.5 t-108.5 67.5q-70 70 -93 181.5t-23 258.5t23.5 258t92.5 180q43 43 110 68t144 25q88 0 154 -28t121 -95v110h205v-1458h-209z" />
<glyph unicode="r" horiz-adv-x="899" d="M737 795q-37 37 -70.5 53t-84.5 16q-86 0 -146.5 -64.5t-60.5 -168.5v-631h-209v1038h205v-112q41 55 115.5 90t160.5 35q76 0 135.5 -22.5t112.5 -76.5z" />
<glyph unicode="s" horiz-adv-x="1021" d="M934 317q0 -80 -32 -141t-88 -103t-136 -63.5t-176 -21.5q-141 0 -245.5 31.5t-190.5 117.5l137 137q57 -59 135 -83.5t164 -24.5q100 0 163.5 37t63.5 106q0 109 -139 123l-84 8l-82 6q-150 10 -228.5 81t-78.5 206q0 147 110 232q113 86 281 86q123 0 219 -28t166 -89 l-131 -133q-94 76 -256 76q-92 0 -140.5 -36t-48.5 -98q0 -51 33 -80.5t111 -37.5l84 -9l80 -6q150 -10 229.5 -84t79.5 -209z" />
<glyph unicode="t" horiz-adv-x="700" d="M475 0q-68 0 -121 22.5t-90 61.5t-55.5 91t-18.5 114v571h-118v160h118v315h209v-315h201v-160h-201v-561q0 -121 115 -121h86v-178h-125z" />
<glyph unicode="u" horiz-adv-x="1163" d="M793 0v104q-109 -117 -277 -116q-160 0 -256 94q-57 55 -80.5 127t-23.5 166v663h209v-632q0 -117 58 -174.5t150 -57.5q94 0 154.5 57.5t60.5 174.5v632h209v-1038h-204z" />
<glyph unicode="v" horiz-adv-x="964" d="M567 0h-170l-381 1038h222l245 -731l244 731h221z" />
<glyph unicode="w" horiz-adv-x="1521" d="M1182 0h-178l-244 725l-242 -725h-180l-322 1038h222l200 -731l242 731h162l239 -731l201 731h223z" />
<glyph unicode="x" horiz-adv-x="1030" d="M733 0l-217 354l-219 -354h-252l356 530l-342 508h252l205 -338l203 338h252l-340 -508l354 -530h-252z" />
<glyph unicode="y" horiz-adv-x="958" d="M492 -207q-31 -84 -76 -129q-41 -41 -94.5 -58.5t-118.5 -17.5h-84v189h53q66 0 96.5 23.5t53.5 86.5l57 162l-363 989h222l247 -731l242 731h223z" />
<glyph unicode="z" horiz-adv-x="960" d="M88 0v166l516 686h-487v186h745v-166l-520 -686h520v-186h-774z" />
<glyph unicode="{" horiz-adv-x="833" d="M596 -152q-150 0 -219 70q-39 39 -56.5 89t-17.5 126v342q0 86 -37 123q-39 39 -98 39h-76v184h76q59 0 98 39q37 37 37 123v342q0 76 17.5 126t56.5 89q70 70 219 70h145v-187h-79q-49 0 -77 -6t-42 -22q-16 -16 -23.5 -46t-7.5 -85v-330q0 -90 -37 -134t-98 -71 q61 -27 98 -71t37 -134v-329q0 -55 7 -85t24 -47q14 -16 41.5 -22t77.5 -6h79v-187h-145z" />
<glyph unicode="|" horiz-adv-x="692" d="M242 -152v1762h209v-1762h-209z" />
<glyph unicode="}" horiz-adv-x="833" d="M668 637q-61 0 -101 -39q-37 -37 -37 -123v-342q0 -76 -17 -126t-56 -89q-70 -70 -219 -70h-146v187h80q51 0 77.5 6t41.5 22q16 16 23.5 46t7.5 86v329q0 90 36.5 134t100.5 71q-63 29 -100 73t-37 132v330q0 55 -7.5 84.5t-23.5 46.5q-14 16 -41 22t-78 6h-80v187h146 q150 0 219 -70q39 -39 56 -89t17 -126v-342q0 -86 37 -123q39 -39 101 -39h73v-184h-73z" />
<glyph unicode="~" horiz-adv-x="1175" d="M1087 573q-45 -45 -82.5 -75.5t-73.5 -49t-71 -26.5t-76 -8q-55 0 -107 16t-122 51q-49 25 -86 37t-76 12q-45 0 -82 -17t-92 -73l-131 131q45 45 83 76t74 49.5t69.5 26.5t74.5 8q55 0 105.5 -16.5t121.5 -50.5q49 -25 87 -37.5t77 -12.5q45 0 82 17.5t92 73.5z" />
<glyph horiz-adv-x="1394" d="M1272 436q-18 -109 -65.5 -192.5t-116 -140t-155.5 -86t-185 -29.5q-117 0 -211.5 40t-169.5 115q-74 74 -100.5 160t-35.5 205h-145v137h139v176h-139v137h145q8 115 36 200t100 157q76 76 170 115.5t211 39.5q100 0 187 -29.5t155.5 -86t114.5 -140.5t65 -192h-225 q-27 111 -101 181.5t-196 70.5q-131 0 -215 -90q-41 -41 -56.5 -89t-21.5 -137h374v-137h-382v-176h382v-137h-374q6 -92 21.5 -142.5t56.5 -91.5q84 -90 215 -90q123 0 197.5 71t101.5 181h223z" />
<glyph horiz-adv-x="546" d="M160 -188v403h229v-215z" />
<glyph horiz-adv-x="849" d="M668 1290q-113 0 -136 -121l-65 -368h207v-160h-236l-186 -1061h-209l186 1061h-168v160h197l68 379q23 121 108 204q90 84 225 84h129v-178h-120z" />
<glyph horiz-adv-x="942" d="M160 -188v403h229v-215zM551 -188v403h229v-215z" />
<glyph unicode="&#x85;" horiz-adv-x="1644" d="M160 0v240h239v-240h-239zM702 0v240h240v-240h-240zM1245 0v240h240v-240h-240z" />
<glyph horiz-adv-x="1210" d="M709 874v-874h-209v874h-367v187h367v397h209v-397h368v-187h-368z" />
<glyph horiz-adv-x="1210" d="M709 -23v-397h-209v397h-367v189h367v708h-367v187h367v397h209v-397h368v-187h-368v-708h368v-189h-368z" />
<glyph horiz-adv-x="1024" d="M690 1227l-178 198l-178 -198h-174l264 329h176l264 -329h-174z" />
<glyph horiz-adv-x="2449" d="M2173 467q0 147 -129 147t-129 -147v-195q0 -147 129 -147t129 147v195zM2331 266q0 -66 -21.5 -117t-60.5 -87.5t-91.5 -56t-113.5 -19.5t-113.5 19.5t-91.5 56t-60.5 88t-21.5 116.5v207q0 63 21.5 115.5t60.5 89.5t91 56.5t114 19.5q61 0 113.5 -19.5t91.5 -56.5 t60.5 -89t21.5 -116v-207zM535 1186q0 147 -129 147t-130 -147v-195q0 -145 130 -145q129 0 129 145v195zM692 985q0 -129 -82 -203.5t-204 -74.5q-123 0 -205 74.5t-82 203.5v207q0 63 21.5 115.5t60.5 89.5t91 56.5t114 19.5q61 0 113 -19.5t91 -56.5t60.5 -89.5 t21.5 -115.5v-207zM602 0h-168l688 1458h166zM1448 467q0 147 -129 147t-129 -147v-195q0 -147 129 -147t129 147v195zM1606 266q0 -66 -21.5 -117t-60.5 -87.5t-91.5 -56t-113.5 -19.5t-113.5 19.5t-91.5 56t-60.5 88t-21.5 116.5v207q0 63 21.5 115.5t60.5 89.5t91 56.5 t114 19.5q61 0 113.5 -19.5t91.5 -56.5t60.5 -89t21.5 -116v-207z" />
<glyph horiz-adv-x="1208" d="M686 1599h-176l-264 330h174l178 -198l178 198h174zM1102 416q0 -199 -146 -314q-145 -115 -378 -114q-168 0 -290 44t-227 148l148 146q78 -76 166 -108t207 -32q143 0 222 58.5t79 165.5q0 96 -58 151q-27 27 -61.5 39t-97.5 23l-86 12l-86 12q-178 25 -277 117 q-106 100 -106 278q0 193 131 310q131 119 356 118q147 0 252.5 -38.5t200.5 -126.5l-142 -140q-63 61 -141 87t-176 26q-125 0 -195.5 -63.5t-70.5 -163.5q0 -86 55 -136q59 -53 164 -67l86 -12l80 -13q100 -16 162.5 -40.5t109.5 -67.5q119 -104 119 -299z" />
<glyph horiz-adv-x="694" d="M76 557l471 469v-252l-219 -217l219 -219v-252z" />
<glyph horiz-adv-x="2000" d="M965 729q0 111 -3.5 184.5t-12.5 122.5t-25.5 82t-44.5 64q-39 43 -96.5 66.5t-120.5 23.5t-120 -23.5t-96 -66.5q-29 -29 -45 -62t-25 -82t-12.5 -122.5t-3.5 -186.5q0 -111 3.5 -184.5t12.5 -123.5t26.5 -83t43.5 -62q39 -43 95.5 -66.5t120.5 -23.5q63 0 120.5 25 t96.5 65q27 31 44 64t26 81t12.5 120.5t3.5 187.5zM965 0v119q-57 -66 -139.5 -98.5t-168.5 -32.5q-227 0 -378 151q-98 98 -123 238q-6 33 -10.5 67.5t-5.5 75.5t-2 91.5t-1 117.5q0 68 1 118t2 91t5.5 75t10.5 68q25 139 123 238q152 152 378 151q92 0 171 -31.5 t137 -99.5v119h921v-196h-700v-431h596v-192h-596v-442h702v-197h-923z" />
<glyph horiz-adv-x="548" d="M160 1245v213l229 191v-404h-229z" />
<glyph horiz-adv-x="548" d="M160 1057v401h229v-215z" />
<glyph horiz-adv-x="940" d="M160 1245v213l229 191v-404h-229zM551 1245v213l229 191v-404h-229z" />
<glyph horiz-adv-x="940" d="M160 1057v401h229v-215zM551 1057v401h229v-215z" />
<glyph horiz-adv-x="1048" d="M858 684q0 -70 -26.5 -130t-71.5 -105.5t-105.5 -72t-130.5 -26.5t-130 26.5t-105 72t-72 105.5t-27 130t27 130t72 105.5t105.5 72t129.5 26.5q70 0 130.5 -26.5t105.5 -72t71.5 -105.5t26.5 -130z" />
<glyph d="M104 471v195h883v-195h-883z" />
<glyph horiz-adv-x="1990" d="M137 473v199h1716v-199h-1716z" />
<glyph horiz-adv-x="1024" d="M858 1366q-66 -66 -114 -89.5t-99 -23.5q-43 0 -76.5 11.5t-76.5 35.5q-66 39 -115 39q-31 0 -55.5 -11t-63.5 -50l-98 96q66 66 112.5 89.5t100.5 23.5q43 0 75.5 -11.5t77.5 -37.5q63 -39 113 -39q29 0 55.5 12t65.5 51z" />
<glyph horiz-adv-x="1808" d="M473 1317v-733h-156v733h-233v141h625v-141h-236zM1526 584v571l-185 -367h-145l-184 367v-571h-158v874h158l256 -497l258 497h157v-874h-157z" />
<glyph horiz-adv-x="1021" d="M596 1227h-176l-264 329h174l178 -198l178 198h174zM934 317q0 -80 -32 -141t-88 -103t-136 -63.5t-176 -21.5q-141 0 -245.5 31.5t-190.5 117.5l137 137q57 -59 135 -83.5t164 -24.5q100 0 163.5 37t63.5 106q0 109 -139 123l-84 8l-82 6q-150 10 -228.5 81t-78.5 206 q0 147 110 232q113 86 281 86q123 0 219 -28t166 -89l-131 -133q-94 76 -256 76q-92 0 -140.5 -36t-48.5 -98q0 -51 33 -80.5t111 -37.5l84 -9l80 -6q150 -10 229.5 -84t79.5 -209z" />
<glyph horiz-adv-x="694" d="M147 86v252l222 219l-222 217v252l474 -469z" />
<glyph horiz-adv-x="1765" d="M774 520q0 104 -14.5 173t-57.5 112q-59 59 -153 59q-92 0 -152 -59q-43 -43 -57 -111.5t-14 -173.5q0 -104 14 -172.5t57 -111.5q61 -61 152 -62q92 0 153 62q43 43 57.5 111.5t14.5 172.5zM1446 604q-2 51 -7 80t-20 61q-25 59 -80 95.5t-127 36.5t-125 -36t-79 -96 q-16 -35 -21.5 -64.5t-7.5 -76.5h467zM979 459q0 -135 69.5 -213t194.5 -78q84 0 139.5 24.5t112.5 81.5l133 -124q-43 -43 -84 -74t-87 -50.5t-98 -28.5t-118 -9q-238 0 -358 164q-49 -76 -136.5 -120t-197.5 -44q-100 0 -177 32.5t-132 90.5q-70 74 -96.5 171t-26.5 238 t26.5 238.5t96.5 169.5q55 57 132 90t177 33q113 0 200 -44t136 -122q111 166 327 166q207 0 324 -138q117 -139 117 -362v-92h-674z" />
<glyph horiz-adv-x="1114" d="M242 1610v221h188v-221h-188zM684 1610v221h188v-221h-188zM668 600v-600h-222v600l-436 858h242l305 -641l305 641h242z" />
<glyph unicode="&#xa1;" horiz-adv-x="679" d="M178 -420l45 1024h164l45 -1024h-254zM190 815v223h230v-223h-230z" />
<glyph unicode="&#xa2;" horiz-adv-x="1019" d="M506 1081q-76 -16 -119 -80q-35 -47 -50 -105t-15 -146t15 -147.5t48 -104.5q49 -63 121 -80v663zM940 377q-63 -70 -132 -105.5t-157 -46.5v-225h-164v227q-172 29 -273 164t-101 359q0 223 101 358t273 164v186h164v-184q88 -10 157 -46t132 -106l-139 -135 q-39 45 -78 67.5t-90 30.5v-671q51 8 90 30.5t78 67.5z" />
<glyph unicode="&#xa3;" horiz-adv-x="1155" d="M215 0v641h-127v160h127v196q0 113 38 201t104.5 148.5t154.5 92t190 31.5q113 0 196 -32.5t159 -108.5l-148 -145q-45 45 -89 66.5t-118 21.5q-125 0 -194.5 -75t-69.5 -216v-180h264v-160h-264v-442h619v-199h-842z" />
<glyph unicode="&#xa4;" horiz-adv-x="1361" d="M958 571q0 115 -81 195q-82 82 -197 82t-197 -82q-82 -80 -82 -195t82 -196q82 -82 197 -82t197 82q81 81 81 196zM1085 29l-151 151q-115 -78 -254 -78t-254 78l-150 -151l-137 137l150 151q-78 115 -78 254t78 254l-150 150l137 137l150 -149q109 76 254 75 q145 0 254 -75l151 149l138 -137l-152 -150q78 -115 78 -254t-78 -254l152 -151z" />
<glyph unicode="&#xa5;" horiz-adv-x="1114" d="M803 864h178v-159h-260l-53 -105v-106h313v-160h-313v-334h-222v334h-313v160h313v106l-53 105h-260v159h178l-301 594h242l307 -643l303 643h240z" />
<glyph unicode="&#xa6;" horiz-adv-x="704" d="M242 -152v717h209v-717h-209zM242 893v717h209v-717h-209z" />
<glyph unicode="&#xa7;" horiz-adv-x="1112" d="M762 535q0 109 -60 163q-59 57 -143 58q-94 0 -145 -58q-29 -31 -43.5 -68.5t-14.5 -94.5q0 -55 15.5 -94.5t42.5 -67.5q51 -57 145 -58q88 0 143 58q29 31 44.5 68t15.5 94zM768 221q82 -37 131 -107.5t49 -181.5q0 -168 -114 -266q-115 -98 -277 -98t-276 90 q-115 90 -121 258h205q6 -76 56 -119t136 -43q88 0 137 46t49 126q0 59 -39.5 107.5t-119.5 72.5l-144 44q-289 86 -288 380q0 111 59 195t139 125q-82 41 -127 105.5t-45 168.5q0 147 103 246q100 100 278 100q180 0 280.5 -92t104.5 -245h-201q-6 80 -54 117.5t-130 37.5 q-86 0 -133 -41t-47 -117q0 -61 40 -102t113 -63l144 -43q291 -88 291 -381q0 -111 -59.5 -195t-139.5 -125z" />
<glyph unicode="&#xa8;" horiz-adv-x="1024" d="M197 1237v221h188v-221h-188zM639 1237v221h188v-221h-188z" />
<glyph unicode="&#xa9;" horiz-adv-x="1765" d="M1163 426q-61 -55 -121.5 -81t-146.5 -26q-84 0 -151.5 29t-114.5 83t-74 130t-27 168t27 168t74 130t114.5 83t151.5 29q86 0 145.5 -26t122.5 -81l-94 -96q-45 41 -84 56.5t-90 15.5q-111 0 -166 -75t-55 -204t55 -203.5t166 -74.5q51 0 90 16t84 55zM1475 729 q0 125 -46.5 234.5t-126 191.5t-188 129t-231.5 47t-230.5 -47t-188.5 -129t-127 -191.5t-46 -234.5t46 -234.5t127 -191.5t188.5 -129t230.5 -47t231.5 47t188 129t126 191.5t46.5 234.5zM1624 729q0 -154 -58.5 -288t-159.5 -235.5t-235.5 -159.5t-287.5 -58 q-154 0 -288 58t-235.5 159.5t-160 235.5t-58.5 288t58.5 288t160 235.5t235.5 159.5t288 58t288 -58t235 -159.5t159.5 -235.5t58.5 -288z" />
<glyph unicode="&#xaa;" horiz-adv-x="925" d="M606 993h-190q-143 0 -144 -116q0 -113 146 -113q55 0 90 8t63 37q35 35 35 119v65zM610 629v73q-45 -45 -93 -63t-124 -18q-147 0 -221 73q-66 66 -66 178q0 111 74 175.5t211 64.5h215v57q0 78 -42 115t-136 37q-66 0 -103.5 -17.5t-74.5 -62.5l-113 107q57 68 125 93 t174 25q340 0 340 -284v-553h-166z" />
<glyph unicode="&#xab;" horiz-adv-x="1212" d="M76 557l471 469v-252l-219 -217l219 -219v-252zM594 557l471 469v-252l-221 -217l221 -219v-252z" />
<glyph unicode="&#xac;" d="M797 201v288h-699v195h893v-483h-194z" />
<glyph unicode="&#xad;" d="M104 471v195h883v-195h-883z" />
<glyph unicode="&#xae;" horiz-adv-x="1765" d="M1038 885q0 51 -36.5 86t-94.5 35h-135v-242h135q57 0 94 35t37 86zM1038 330l-164 317h-102v-317h-147v800h301q113 0 184 -71q74 -72 74 -174q0 -80 -44 -136.5t-114 -80.5l178 -338h-166zM1475 729q0 125 -46.5 235.5t-126 192.5t-187 129t-232.5 47t-233.5 -47 t-188.5 -129t-126 -192.5t-46 -235.5q0 -127 46 -236.5t126 -191.5t188.5 -129t233.5 -47q123 0 231.5 47t188 129t126 191.5t46.5 236.5zM1624 729q0 -154 -58.5 -288t-159.5 -235.5t-235.5 -159.5t-287.5 -58q-154 0 -288 58t-235.5 159.5t-160 235.5t-58.5 288t58.5 288 t160 235.5t235.5 159.5t288 58t288 -58t235 -159.5t159.5 -235.5t58.5 -288z" />
<glyph unicode="&#xaf;" horiz-adv-x="1024" d="M195 1274v149h634v-149h-634z" />
<glyph unicode="&#xb0;" horiz-adv-x="964" d="M668 1124q0 39 -14.5 74t-40 61.5t-59.5 41t-73 14.5q-78 0 -131 -55.5t-53 -135.5t53 -134t131 -54t132.5 54t54.5 134zM840 1124q0 -74 -29 -138t-78 -112.5t-113.5 -77t-138.5 -28.5t-138 28.5t-112.5 77t-77 113t-28.5 137.5q0 74 28.5 138.5t77 113.5t113 78 t137.5 29q74 0 138.5 -29t113.5 -78t78 -113.5t29 -138.5z" />
<glyph unicode="&#xb1;" d="M104 0v195h883v-195h-883zM643 647v-346h-194v346h-345v195h345v344h194v-344h344v-195h-344z" />
<glyph unicode="&#xb2;" horiz-adv-x="716" d="M92 584v141l330 381q27 29 36 52.5t9 53.5q0 51 -28.5 82t-80.5 31q-47 0 -77.5 -26.5t-30.5 -86.5h-158q0 117 75 185.5t191 68.5q117 0 192 -68.5t75 -185.5q0 -57 -21.5 -99t-73.5 -101l-247 -287h342v-141h-533z" />
<glyph unicode="&#xb3;" horiz-adv-x="741" d="M649 836q0 -125 -78.5 -194t-197.5 -69q-117 0 -198 64.5t-83 193.5h158q2 -57 37 -86.5t86 -29.5q53 0 86 32.5t33 92.5q0 57 -33 90t-92 33h-23v135h23q55 0 84.5 31.5t29.5 80.5q0 55 -31.5 85t-78.5 30q-100 0 -111 -106h-156q4 117 79 182t188 65q117 0 191.5 -69.5 t74.5 -179.5q0 -68 -27.5 -113t-74.5 -70q53 -27 83.5 -75.5t30.5 -122.5z" />
<glyph unicode="&#xb4;" horiz-adv-x="1024" d="M563 1227h-157l153 332h232z" />
<glyph unicode="&#xb5;" horiz-adv-x="1165" d="M793 0v104q-109 -117 -275 -116q-94 0 -153 51v-459h-209v1458h209v-632q0 -117 58 -174.5t152 -57.5t153.5 57.5t59.5 174.5v632h209v-1038h-204z" />
<glyph unicode="&#xb6;" horiz-adv-x="1304" d="M905 -420v1680h-221v-1680h-209v1069q-84 0 -156.5 33t-126 88t-84 128t-30.5 153q0 184 125 295q125 113 336 112h575v-1878h-209z" />
<glyph unicode="&#xb8;" horiz-adv-x="1024" d="M549 -432h-207l143 301h168z" />
<glyph unicode="&#xb9;" horiz-adv-x="567" d="M260 584v698l-178 -156v179l178 153h158v-874h-158z" />
<glyph unicode="&#xba;" horiz-adv-x="937" d="M643 1044q0 86 -9 137.5t-44 86.5q-47 47 -121 47q-72 0 -119 -47q-35 -35 -45 -88.5t-10 -135.5t10 -136t45 -89q47 -47 119 -47q74 0 121 47q35 35 44 87t9 138zM815 1044q0 -117 -20.5 -192.5t-77.5 -132.5q-43 -45 -105.5 -71.5t-142.5 -26.5t-141.5 26.5 t-104.5 71.5q-57 57 -77.5 133t-20.5 192q0 113 20.5 190t77.5 134q43 45 104.5 71.5t141.5 26.5t142.5 -26.5t105.5 -71.5q57 -57 77.5 -134t20.5 -190z" />
<glyph unicode="&#xbb;" horiz-adv-x="1212" d="M147 86v252l222 219l-222 217v252l474 -469zM666 86v252l219 219l-219 217v252l473 -469z" />
<glyph unicode="&#xbc;" horiz-adv-x="1654" d="M260 584v698l-178 -156v179l178 153h158v-874h-158zM535 0h-166l686 1458h166zM1491 125v-125h-152v125h-356v145l301 604h170l-301 -604h186v170h152v-170h82v-145h-82z" />
<glyph unicode="&#xbd;" horiz-adv-x="1693" d="M260 584v698l-178 -156v179l178 153h158v-874h-158zM518 0h-166l686 1458h166zM1071 0v141l328 381q27 29 36 52.5t9 54.5q0 51 -29 81.5t-80 30.5q-47 0 -77.5 -26.5t-30.5 -85.5h-156q0 117 74 185.5t190 68.5q117 0 192 -69t75 -185q0 -57 -21.5 -99.5t-73.5 -101.5 l-247 -287h342v-141h-531z" />
<glyph unicode="&#xbe;" horiz-adv-x="1728" d="M649 836q0 -125 -78.5 -194t-197.5 -69q-117 0 -198 64.5t-83 193.5h158q2 -57 37 -86.5t86 -29.5q53 0 86 32.5t33 92.5q0 57 -33 90t-92 33h-23v135h23q55 0 84.5 31.5t29.5 80.5q0 55 -31.5 85t-78.5 30q-100 0 -111 -106h-156q4 117 79 182t188 65q117 0 191.5 -69.5 t74.5 -179.5q0 -68 -27.5 -113t-74.5 -70q53 -27 83.5 -75.5t30.5 -122.5zM621 0h-166l686 1458h166zM1565 125v-125h-150v125h-356v145l299 604h172l-301 -604h186v170h150v-170h82v-145h-82z" />
<glyph unicode="&#xbf;" horiz-adv-x="1046" d="M901 -39q0 -86 -31.5 -158.5t-87 -125t-130 -81t-160.5 -28.5q-84 0 -158 27.5t-129 79t-88 124t-33 162.5q0 70 25.5 129.5t70.5 122.5l160 221q16 23 26.5 54.5t10.5 56.5v61h209v-74q0 -61 -17.5 -106t-54.5 -96l-158 -215q-63 -88 -63 -156q0 -88 55 -145.5 t144 -57.5q92 0 146 59.5t54 145.5h209zM367 815v223h229v-223h-229z" />
<glyph unicode="&#xc0;" horiz-adv-x="1280" d="M582 1599l-228 332h232l153 -332h-157zM645 1128l-227 -647h448zM1028 0l-100 293h-576l-100 -293h-236l535 1458h178l535 -1458h-236z" />
<glyph unicode="&#xc1;" horiz-adv-x="1280" d="M686 1599h-158l154 332h231zM645 1128l-227 -647h448zM1028 0l-100 293h-576l-100 -293h-236l535 1458h178l535 -1458h-236z" />
<glyph unicode="&#xc2;" horiz-adv-x="1280" d="M813 1599l-178 199l-178 -199h-174l264 330h176l264 -330h-174zM645 1128l-227 -647h448zM1028 0l-100 293h-576l-100 -293h-236l535 1458h178l535 -1458h-236z" />
<glyph unicode="&#xc3;" horiz-adv-x="1280" d="M979 1739q-66 -66 -114 -89.5t-99 -23.5q-43 0 -77 11.5t-77 35.5q-66 39 -114 39q-31 0 -55.5 -11t-63.5 -50l-98 96q66 66 112.5 89.5t100.5 23.5q43 0 75.5 -11.5t77.5 -38.5q63 -39 113 -38q29 0 55.5 12t65.5 51zM645 1128l-227 -647h448zM1028 0l-100 293h-576 l-100 -293h-236l535 1458h178l535 -1458h-236z" />
<glyph unicode="&#xc4;" horiz-adv-x="1280" d="M319 1610v221h189v-221h-189zM762 1610v221h188v-221h-188zM645 1128l-227 -647h448zM1028 0l-100 293h-576l-100 -293h-236l535 1458h178l535 -1458h-236z" />
<glyph unicode="&#xc5;" horiz-adv-x="1280" d="M766 1792q0 53 -39 91t-92 38t-92 -38t-39 -91t39 -91t92 -38t92 38t39 91zM891 1792q0 -106 -76 -182q-74 -74 -180 -74q-109 0 -182 74q-74 74 -74 182q0 106 74 180q76 76 182 76q104 0 180 -76t76 -180zM645 1128l-227 -647h448zM1028 0l-100 293h-576l-100 -293 h-236l535 1458h178l535 -1458h-236z" />
<glyph unicode="&#xc6;" horiz-adv-x="1949" d="M905 1260l-385 -740h385v740zM905 0v332h-481l-172 -332h-242l766 1458h1061v-198h-711v-429h607v-198h-607v-434h711v-199h-932z" />
<glyph unicode="&#xc7;" horiz-adv-x="1286" d="M662 -432h-207l143 301h168zM1182 436q-18 -106 -64.5 -190t-114 -141.5t-154.5 -87t-187 -29.5q-227 0 -383 155q-98 98 -123 232q-6 33 -10.5 67.5t-5.5 75.5t-2 92.5t-1 118.5v122q0 52 2 89q2 39 6.5 74t10.5 67q14 68 42.5 125.5t80.5 108.5q156 156 383 155 q205 0 344 -115.5t176 -332.5h-226q-27 117 -102.5 183.5t-191.5 66.5q-63 0 -120 -23.5t-96 -64.5q-27 -29 -44 -61.5t-26 -83t-13.5 -125t-4.5 -185.5q0 -113 3.5 -186.5t13.5 -122.5t26.5 -82t44.5 -64q39 -41 95.5 -64.5t120.5 -23.5q119 0 194.5 66.5t101.5 183.5h224z " />
<glyph unicode="&#xc8;" horiz-adv-x="1234" d="M586 1599l-228 332h232l153 -332h-157zM190 0v1458h932v-198h-710v-426h606v-197h-606v-438h710v-199h-932z" />
<glyph unicode="&#xc9;" horiz-adv-x="1234" d="M688 1599h-158l154 332h231zM190 0v1458h932v-198h-710v-426h606v-197h-606v-438h710v-199h-932z" />
<glyph unicode="&#xca;" horiz-adv-x="1234" d="M815 1599l-178 199l-178 -199h-174l264 330h176l264 -330h-174zM190 0v1458h932v-198h-710v-426h606v-197h-606v-438h710v-199h-932z" />
<glyph unicode="&#xcb;" horiz-adv-x="1234" d="M322 1610v221h188v-221h-188zM764 1610v221h188v-221h-188zM190 0v1458h932v-198h-710v-426h606v-197h-606v-438h710v-199h-932z" />
<glyph unicode="&#xcc;" horiz-adv-x="602" d="M283 1599l-228 332h232l153 -332h-157zM190 0v1458h222v-1458h-222z" />
<glyph unicode="&#xcd;" horiz-adv-x="602" d="M322 1599h-158l153 332h232zM190 0v1458h222v-1458h-222z" />
<glyph unicode="&#xce;" horiz-adv-x="602" d="M469 1599l-178 199l-178 -199h-174l264 330h176l264 -330h-174zM190 0v1458h222v-1458h-222z" />
<glyph unicode="&#xcf;" horiz-adv-x="602" d="M-18 1610v221h188v-221h-188zM424 1610v221h188v-221h-188zM190 0v1458h222v-1458h-222z" />
<glyph unicode="&#xd0;" horiz-adv-x="1400" d="M1042 723q0 102 -2 167.5t-8 108.5t-18.5 73t-34.5 63q-47 66 -109.5 96.5t-154.5 30.5h-264v-441h282v-170h-282v-454h264q188 0 272 129q20 31 31.5 56.5t16.5 65t6 103t1 172.5zM1264 729q0 -68 -1 -117t-2 -88t-4.5 -69.5t-9.5 -59.5q-10 -57 -31.5 -105t-62.5 -97 q-74 -92 -178.5 -142.5t-239.5 -50.5h-506v651h-151v170h151v637h512q260 0 412 -194q41 -53 63.5 -102.5t32.5 -108.5q6 -29 8.5 -58.5t4.5 -66.5t2 -85v-114z" />
<glyph unicode="&#xd1;" horiz-adv-x="1476" d="M1085 1739q-66 -66 -113.5 -89.5t-99.5 -23.5q-43 0 -76.5 11.5t-76.5 35.5q-66 39 -115 39q-31 0 -55.5 -11t-63.5 -50l-98 96q66 66 113 89.5t100 23.5q43 0 76 -11.5t78 -38.5q63 -39 112 -38q29 0 55.5 12t65.5 51zM1085 0l-442 676l-231 350v-1026h-222v1458h203 l416 -631l258 -393v1024h221v-1458h-203z" />
<glyph unicode="&#xd2;" horiz-adv-x="1325" d="M610 1599l-227 332h231l154 -332h-158zM965 729q0 111 -3.5 184.5t-12.5 122.5t-25.5 82t-44.5 64q-39 43 -96.5 66.5t-120.5 23.5t-121 -23.5t-97 -66.5q-29 -29 -45 -62t-25 -82t-12.5 -122.5t-3.5 -186.5q0 -111 3.5 -184.5t12.5 -123.5t26.5 -83t43.5 -62 q39 -41 96.5 -65.5t121.5 -24.5q63 0 120.5 25t96.5 65q27 31 44 64t26 81t12.5 120.5t3.5 187.5zM1186 729q0 -68 -1 -120t-3 -93t-6.5 -77t-10.5 -68q-12 -68 -40.5 -123t-77.5 -105q-156 -156 -385 -155q-227 0 -383 155q-98 98 -123 232q-6 33 -10.5 67.5t-5.5 75.5 t-2 92.5t-1 118.5v122q0 52 2 89q2 39 6.5 74t10.5 67q14 68 42.5 125.5t80.5 108.5q156 156 383 155q229 0 385 -155q94 -94 118 -228q6 -35 10.5 -69.5t6.5 -75.5t3 -93t1 -120z" />
<glyph unicode="&#xd3;" horiz-adv-x="1325" d="M713 1599h-158l154 332h231zM965 729q0 111 -3.5 184.5t-12.5 122.5t-25.5 82t-44.5 64q-39 43 -96.5 66.5t-120.5 23.5t-121 -23.5t-97 -66.5q-29 -29 -45 -62t-25 -82t-12.5 -122.5t-3.5 -186.5q0 -111 3.5 -184.5t12.5 -123.5t26.5 -83t43.5 -62q39 -41 96.5 -65.5 t121.5 -24.5q63 0 120.5 25t96.5 65q27 31 44 64t26 81t12.5 120.5t3.5 187.5zM1186 729q0 -68 -1 -120t-3 -93t-6.5 -77t-10.5 -68q-12 -68 -40.5 -123t-77.5 -105q-156 -156 -385 -155q-227 0 -383 155q-98 98 -123 232q-6 33 -10.5 67.5t-5.5 75.5t-2 92.5t-1 118.5v122 q0 52 2 89q2 39 6.5 74t10.5 67q14 68 42.5 125.5t80.5 108.5q156 156 383 155q229 0 385 -155q94 -94 118 -228q6 -35 10.5 -69.5t6.5 -75.5t3 -93t1 -120z" />
<glyph unicode="&#xd4;" horiz-adv-x="1325" d="M840 1599l-178 199l-179 -199h-174l264 330h177l264 -330h-174zM965 729q0 111 -3.5 184.5t-12.5 122.5t-25.5 82t-44.5 64q-39 43 -96.5 66.5t-120.5 23.5t-121 -23.5t-97 -66.5q-29 -29 -45 -62t-25 -82t-12.5 -122.5t-3.5 -186.5q0 -111 3.5 -184.5t12.5 -123.5 t26.5 -83t43.5 -62q39 -41 96.5 -65.5t121.5 -24.5q63 0 120.5 25t96.5 65q27 31 44 64t26 81t12.5 120.5t3.5 187.5zM1186 729q0 -68 -1 -120t-3 -93t-6.5 -77t-10.5 -68q-12 -68 -40.5 -123t-77.5 -105q-156 -156 -385 -155q-227 0 -383 155q-98 98 -123 232 q-6 33 -10.5 67.5t-5.5 75.5t-2 92.5t-1 118.5v122q0 52 2 89q2 39 6.5 74t10.5 67q14 68 42.5 125.5t80.5 108.5q156 156 383 155q229 0 385 -155q94 -94 118 -228q6 -35 10.5 -69.5t6.5 -75.5t3 -93t1 -120z" />
<glyph unicode="&#xd5;" horiz-adv-x="1325" d="M1008 1739q-66 -66 -114 -89.5t-99 -23.5q-43 0 -77 11.5t-77 35.5q-66 39 -115 39q-31 0 -55.5 -11t-62.5 -50l-99 96q66 66 113 89.5t100 23.5q43 0 76 -11.5t78 -38.5q63 -39 112 -38q29 0 55.5 12t65.5 51zM965 729q0 111 -3.5 184.5t-12.5 122.5t-25.5 82t-44.5 64 q-39 43 -96.5 66.5t-120.5 23.5t-121 -23.5t-97 -66.5q-29 -29 -45 -62t-25 -82t-12.5 -122.5t-3.5 -186.5q0 -111 3.5 -184.5t12.5 -123.5t26.5 -83t43.5 -62q39 -41 96.5 -65.5t121.5 -24.5q63 0 120.5 25t96.5 65q27 31 44 64t26 81t12.5 120.5t3.5 187.5zM1186 729 q0 -68 -1 -120t-3 -93t-6.5 -77t-10.5 -68q-12 -68 -40.5 -123t-77.5 -105q-156 -156 -385 -155q-227 0 -383 155q-98 98 -123 232q-6 33 -10.5 67.5t-5.5 75.5t-2 92.5t-1 118.5v122q0 52 2 89q2 39 6.5 74t10.5 67q14 68 42.5 125.5t80.5 108.5q156 156 383 155 q229 0 385 -155q94 -94 118 -228q6 -35 10.5 -69.5t6.5 -75.5t3 -93t1 -120z" />
<glyph unicode="&#xd6;" horiz-adv-x="1325" d="M346 1610v221h189v-221h-189zM788 1610v221h189v-221h-189zM965 729q0 111 -3.5 184.5t-12.5 122.5t-25.5 82t-44.5 64q-39 43 -96.5 66.5t-120.5 23.5t-121 -23.5t-97 -66.5q-29 -29 -45 -62t-25 -82t-12.5 -122.5t-3.5 -186.5q0 -111 3.5 -184.5t12.5 -123.5t26.5 -83 t43.5 -62q39 -41 96.5 -65.5t121.5 -24.5q63 0 120.5 25t96.5 65q27 31 44 64t26 81t12.5 120.5t3.5 187.5zM1186 729q0 -68 -1 -120t-3 -93t-6.5 -77t-10.5 -68q-12 -68 -40.5 -123t-77.5 -105q-156 -156 -385 -155q-227 0 -383 155q-98 98 -123 232q-6 33 -10.5 67.5 t-5.5 75.5t-2 92.5t-1 118.5v122q0 52 2 89q2 39 6.5 74t10.5 67q14 68 42.5 125.5t80.5 108.5q156 156 383 155q229 0 385 -155q94 -94 118 -228q6 -35 10.5 -69.5t6.5 -75.5t3 -93t1 -120z" />
<glyph unicode="&#xd7;" d="M844 141l-299 297l-297 -297l-131 129l299 299l-299 299l131 131l297 -299l299 299l131 -131l-299 -299l299 -299z" />
<glyph unicode="&#xd8;" horiz-adv-x="1335" d="M965 729q0 88 -2 151.5t-7 104.5q-10 86 -32 133l-424 -887q70 -45 162 -45q63 0 120.5 25t96.5 65q27 31 44 64t26 81t12.5 120.5t3.5 187.5zM825 1227q-72 45 -163 45q-63 0 -120 -23.5t-96 -66.5q-29 -29 -45 -62t-25 -82t-12.5 -122.5t-3.5 -186.5q0 -84 2.5 -145.5 t6.5 -107.5t12 -78.5t20 -57.5zM1186 729q0 -68 -1 -120t-3 -93t-6.5 -77t-10.5 -68q-12 -68 -40.5 -123t-77.5 -105q-156 -156 -385 -155q-131 0 -244 55l-64 -133h-168l105 221l-12 12q-98 98 -123 232q-6 33 -10.5 67.5t-5.5 75.5t-2 92.5t-1 118.5v122q0 52 2 89 q2 39 6.5 74t10.5 67q14 68 42.5 125.5t80.5 108.5q156 156 383 155q131 0 245 -55l62 133h170l-107 -221q2 0 8 -6q6 -4 7 -6q94 -94 118 -228q6 -35 10.5 -69.5t6.5 -75.5t3 -93t1 -120z" />
<glyph unicode="&#xd9;" horiz-adv-x="1382" d="M641 1599l-227 332h231l154 -332h-158zM1214 492q0 -113 -39.5 -205t-110.5 -159t-167 -103.5t-207 -36.5t-207 36.5t-165.5 103.5t-109.5 159t-40 205v966h221v-956q0 -147 82 -231.5t219 -84.5t220 84t83 232v956h221v-966z" />
<glyph unicode="&#xda;" horiz-adv-x="1382" d="M743 1599h-157l153 332h232zM1214 492q0 -113 -39.5 -205t-110.5 -159t-167 -103.5t-207 -36.5t-207 36.5t-165.5 103.5t-109.5 159t-40 205v966h221v-956q0 -147 82 -231.5t219 -84.5t220 84t83 232v956h221v-966z" />
<glyph unicode="&#xdb;" horiz-adv-x="1382" d="M870 1599l-178 199l-178 -199h-174l264 330h176l264 -330h-174zM1214 492q0 -113 -39.5 -205t-110.5 -159t-167 -103.5t-207 -36.5t-207 36.5t-165.5 103.5t-109.5 159t-40 205v966h221v-956q0 -147 82 -231.5t219 -84.5t220 84t83 232v956h221v-966z" />
<glyph unicode="&#xdc;" horiz-adv-x="1382" d="M377 1610v221h188v-221h-188zM819 1610v221h189v-221h-189zM1214 492q0 -113 -39.5 -205t-110.5 -159t-167 -103.5t-207 -36.5t-207 36.5t-165.5 103.5t-109.5 159t-40 205v966h221v-956q0 -147 82 -231.5t219 -84.5t220 84t83 232v956h221v-966z" />
<glyph unicode="&#xdd;" horiz-adv-x="1114" d="M608 1599h-157l153 332h232zM668 600v-600h-222v600l-436 858h242l305 -641l305 641h242z" />
<glyph unicode="&#xde;" horiz-adv-x="1304" d="M987 735q0 113 -70.5 178.5t-187.5 65.5h-317v-485h317q117 0 187.5 64t70.5 177zM1210 735q0 -193 -129 -317q-127 -123 -338 -123h-331v-295h-222v1458h222v-280h331q213 0 340 -125q127 -128 127 -318z" />
<glyph unicode="&#xdf;" horiz-adv-x="1157" d="M1026 311q0 -154 -84 -231q-86 -80 -233 -80h-109v178h66q39 0 61.5 8.5t44.5 26.5q43 33 43 117v319q0 74 -37 109q-39 39 -106 39h-72v166h64q68 0 109.5 39.5t41.5 113.5q0 78 -51 123q-53 49 -166 49q-117 0 -169 -60.5t-52 -170.5v-1057h-211v1069 q0 199 117.5 301.5t320.5 102.5q94 0 172 -23t133.5 -67t85 -109.5t29.5 -151.5t-34 -142t-93 -95q68 -35 98.5 -87.5t30.5 -148.5v-338z" />
<glyph unicode="&#xe0;" horiz-adv-x="1085" d="M475 1227l-227 332h231l154 -332h-158zM721 459h-244q-186 0 -186 -150q0 -147 190 -147q68 0 112 11t83 48q45 45 45 154v84zM725 0v94q-57 -57 -118.5 -81.5t-157.5 -24.5q-184 0 -279 94q-82 84 -82 223q0 135 92 217t266 82h275v74q0 100 -54.5 147t-172.5 47 q-86 0 -135.5 -22.5t-92.5 -77.5l-137 129q72 84 156 117t217 33q428 0 428 -357v-694h-205z" />
<glyph unicode="&#xe1;" horiz-adv-x="1085" d="M578 1227h-158l153 332h232zM721 459h-244q-186 0 -186 -150q0 -147 190 -147q68 0 112 11t83 48q45 45 45 154v84zM725 0v94q-57 -57 -118.5 -81.5t-157.5 -24.5q-184 0 -279 94q-82 84 -82 223q0 135 92 217t266 82h275v74q0 100 -54.5 147t-172.5 47 q-86 0 -135.5 -22.5t-92.5 -77.5l-137 129q72 84 156 117t217 33q428 0 428 -357v-694h-205z" />
<glyph unicode="&#xe2;" horiz-adv-x="1085" d="M705 1227l-179 198l-178 -198h-174l264 329h176l265 -329h-174zM721 459h-244q-186 0 -186 -150q0 -147 190 -147q68 0 112 11t83 48q45 45 45 154v84zM725 0v94q-57 -57 -118.5 -81.5t-157.5 -24.5q-184 0 -279 94q-82 84 -82 223q0 135 92 217t266 82h275v74 q0 100 -54.5 147t-172.5 47q-86 0 -135.5 -22.5t-92.5 -77.5l-137 129q72 84 156 117t217 33q428 0 428 -357v-694h-205z" />
<glyph unicode="&#xe3;" horiz-adv-x="1085" d="M872 1366q-66 -66 -113.5 -89.5t-99.5 -23.5q-43 0 -76.5 11.5t-76.5 35.5q-66 39 -115 39q-31 0 -55.5 -11t-63.5 -50l-98 96q66 66 113 89.5t100 23.5q43 0 76 -11.5t78 -37.5q63 -39 112 -39q29 0 55.5 12t65.5 51zM721 459h-244q-186 0 -186 -150q0 -147 190 -147 q68 0 112 11t83 48q45 45 45 154v84zM725 0v94q-57 -57 -118.5 -81.5t-157.5 -24.5q-184 0 -279 94q-82 84 -82 223q0 135 92 217t266 82h275v74q0 100 -54.5 147t-172.5 47q-86 0 -135.5 -22.5t-92.5 -77.5l-137 129q72 84 156 117t217 33q428 0 428 -357v-694h-205z" />
<glyph unicode="&#xe4;" horiz-adv-x="1085" d="M211 1237v221h188v-221h-188zM653 1237v221h189v-221h-189zM721 459h-244q-186 0 -186 -150q0 -147 190 -147q68 0 112 11t83 48q45 45 45 154v84zM725 0v94q-57 -57 -118.5 -81.5t-157.5 -24.5q-184 0 -279 94q-82 84 -82 223q0 135 92 217t266 82h275v74 q0 100 -54.5 147t-172.5 47q-86 0 -135.5 -22.5t-92.5 -77.5l-137 129q72 84 156 117t217 33q428 0 428 -357v-694h-205z" />
<glyph unicode="&#xe5;" horiz-adv-x="1085" d="M657 1436q0 53 -38.5 91t-92.5 38q-53 0 -92 -38t-39 -91t39 -91t92 -38t92 38t39 91zM782 1436q0 -106 -75 -183q-74 -74 -181 -73q-109 0 -182 73q-74 74 -74 183q0 106 74 180q76 76 182 76q104 0 181 -76q75 -76 75 -180zM721 459h-244q-186 0 -186 -150 q0 -147 190 -147q68 0 112 11t83 48q45 45 45 154v84zM725 0v94q-57 -57 -118.5 -81.5t-157.5 -24.5q-184 0 -279 94q-82 84 -82 223q0 135 92 217t266 82h275v74q0 100 -54.5 147t-172.5 47q-86 0 -135.5 -22.5t-92.5 -77.5l-137 129q72 84 156 117t217 33q428 0 428 -357 v-694h-205z" />
<glyph unicode="&#xe6;" horiz-adv-x="1714" d="M721 459h-244q-186 0 -186 -150q0 -147 190 -147q68 0 112 11t83 48q45 45 45 154v84zM1395 604q-2 51 -7.5 80t-19.5 61q-25 59 -80 95.5t-127 36.5t-125 -36t-80 -96q-16 -35 -21 -64.5t-7 -76.5h467zM928 459q0 -135 67.5 -213t196.5 -78q84 0 139 24.5t113 81.5 l133 -124q-43 -43 -84 -73t-87 -50.5t-99.5 -29.5t-118.5 -9q-117 0 -211 40t-156 122q-37 -47 -76.5 -78t-84 -49.5t-96.5 -26.5t-115 -8q-98 0 -165 21.5t-114 72.5q-41 41 -61.5 99.5t-20.5 123.5q0 135 92 217t266 82h275v74q0 100 -54.5 147t-172.5 47 q-86 0 -135.5 -22.5t-92.5 -77.5l-137 129q72 84 156 117t217 33q258 0 352 -138q113 137 307 138q207 0 324 -138q117 -139 117 -362v-92h-674z" />
<glyph unicode="&#xe7;" horiz-adv-x="999" d="M549 -432h-207l143 301h168zM918 135q-74 -78 -153 -112.5t-190 -34.5q-90 0 -174 29.5t-148.5 94t-102 165t-37.5 243.5t37.5 244.5t102 165t148.5 92.5t174 29q111 0 190 -34t153 -112l-144 -139q-49 55 -93 76.5t-106 21.5q-123 0 -192 -92q-33 -41 -47 -100.5 t-14 -151.5t14 -152.5t47 -101.5q70 -92 192 -92q61 0 105.5 21.5t93.5 76.5z" />
<glyph unicode="&#xe8;" horiz-adv-x="1103" d="M508 1227l-227 332h231l154 -332h-158zM786 604q-2 47 -7 77t-21 64q-27 59 -80 95.5t-125 36.5t-127 -36t-80 -96q-14 -33 -19 -61.5t-8 -79.5h467zM319 459q0 -135 70 -213t195 -78q84 0 139 24.5t113 81.5l133 -124q-43 -43 -84 -73t-87 -50.5t-99.5 -29.5t-118.5 -9 q-100 0 -185.5 28.5t-148 92t-98 165t-35.5 246.5q0 252 118.5 391.5t321.5 139.5q207 0 324 -138q117 -139 116 -362v-92h-674z" />
<glyph unicode="&#xe9;" horiz-adv-x="1103" d="M610 1227h-157l153 332h232zM786 604q-2 47 -7 77t-21 64q-27 59 -80 95.5t-125 36.5t-127 -36t-80 -96q-14 -33 -19 -61.5t-8 -79.5h467zM319 459q0 -135 70 -213t195 -78q84 0 139 24.5t113 81.5l133 -124q-43 -43 -84 -73t-87 -50.5t-99.5 -29.5t-118.5 -9 q-100 0 -185.5 28.5t-148 92t-98 165t-35.5 246.5q0 252 118.5 391.5t321.5 139.5q207 0 324 -138q117 -139 116 -362v-92h-674z" />
<glyph unicode="&#xea;" horiz-adv-x="1103" d="M737 1227l-178 198l-178 -198h-174l264 329h176l264 -329h-174zM786 604q-2 47 -7 77t-21 64q-27 59 -80 95.5t-125 36.5t-127 -36t-80 -96q-14 -33 -19 -61.5t-8 -79.5h467zM319 459q0 -135 70 -213t195 -78q84 0 139 24.5t113 81.5l133 -124q-43 -43 -84 -73t-87 -50.5 t-99.5 -29.5t-118.5 -9q-100 0 -185.5 28.5t-148 92t-98 165t-35.5 246.5q0 252 118.5 391.5t321.5 139.5q207 0 324 -138q117 -139 116 -362v-92h-674z" />
<glyph unicode="&#xeb;" horiz-adv-x="1103" d="M244 1237v221h188v-221h-188zM686 1237v221h188v-221h-188zM786 604q-2 47 -7 77t-21 64q-27 59 -80 95.5t-125 36.5t-127 -36t-80 -96q-14 -33 -19 -61.5t-8 -79.5h467zM319 459q0 -135 70 -213t195 -78q84 0 139 24.5t113 81.5l133 -124q-43 -43 -84 -73t-87 -50.5 t-99.5 -29.5t-118.5 -9q-100 0 -185.5 28.5t-148 92t-98 165t-35.5 246.5q0 252 118.5 391.5t321.5 139.5q207 0 324 -138q117 -139 116 -362v-92h-674z" />
<glyph unicode="&#xec;" horiz-adv-x="540" d="M258 1227l-227 332h231l154 -332h-158zM166 0v1038h209v-1038h-209z" />
<glyph unicode="&#xed;" horiz-adv-x="540" d="M293 1227h-158l154 332h231zM166 0v1038h209v-1038h-209z" />
<glyph unicode="&#xee;" horiz-adv-x="540" d="M444 1227l-178 198l-178 -198h-174l264 329h176l264 -329h-174zM166 0v1038h209v-1038h-209z" />
<glyph unicode="&#xef;" horiz-adv-x="540" d="M-49 1237v221h188v-221h-188zM393 1237v221h189v-221h-189zM166 0v1038h209v-1038h-209z" />
<glyph unicode="&#xf0;" horiz-adv-x="1099" d="M766 510q0 100 -13.5 166.5t-54.5 109.5q-59 59 -149 60q-88 0 -148 -60q-41 -43 -54 -109.5t-13 -166.5t13 -167t54 -110q59 -59 148 -59q90 0 149 59q41 43 54.5 110t13.5 167zM975 510q0 -141 -25.5 -235.5t-95.5 -165.5q-51 -55 -129 -88t-176 -33t-174 32.5 t-129 88.5q-70 72 -95.5 166t-25.5 235t25.5 235.5t95.5 165.5q80 82 213 105q20 6 69 6q35 0 86 -10l-92 166h-237v147h159l-79 143h221l80 -143h178v-147h-103l105 -193q39 -74 64.5 -129t40 -108.5t19.5 -108.5t5 -129z" />
<glyph unicode="&#xf1;" horiz-adv-x="1163" d="M934 1366q-66 -66 -114 -89.5t-99 -23.5q-43 0 -77 11.5t-77 35.5q-66 39 -114 39q-31 0 -55.5 -11t-63.5 -50l-98 96q66 66 112.5 89.5t100.5 23.5q43 0 75.5 -11.5t77.5 -37.5q63 -39 113 -39q29 0 55.5 12t65.5 51zM799 0v633q0 117 -57.5 174t-151.5 57t-154.5 -57 t-60.5 -174v-633h-209v1038h205v-104q106 117 276 117q160 0 256 -95q57 -55 81 -126.5t24 -165.5v-664h-209z" />
<glyph unicode="&#xf2;" horiz-adv-x="1099" d="M483 1227l-227 332h231l154 -332h-158zM774 520q0 104 -14.5 173t-57.5 112q-59 59 -153 59q-92 0 -152 -59q-43 -43 -57 -111.5t-14 -173.5q0 -104 14 -172.5t57 -111.5q61 -61 152 -62q92 0 153 62q43 43 57.5 111.5t14.5 172.5zM983 520q0 -141 -25.5 -239.5 t-97.5 -169.5q-53 -57 -132 -90t-179 -33t-177 32.5t-132 90.5q-70 74 -96.5 171t-26.5 238t26.5 238.5t96.5 169.5q55 57 132 90t177 33t178 -33t133 -90q70 -72 96.5 -169.5t26.5 -238.5z" />
<glyph unicode="&#xf3;" horiz-adv-x="1099" d="M600 1227h-158l154 332h231zM774 520q0 104 -14.5 173t-57.5 112q-59 59 -153 59q-92 0 -152 -59q-43 -43 -57 -111.5t-14 -173.5q0 -104 14 -172.5t57 -111.5q61 -61 152 -62q92 0 153 62q43 43 57.5 111.5t14.5 172.5zM983 520q0 -141 -25.5 -239.5t-97.5 -169.5 q-53 -57 -132 -90t-179 -33t-177 32.5t-132 90.5q-70 74 -96.5 171t-26.5 238t26.5 238.5t96.5 169.5q55 57 132 90t177 33t178 -33t133 -90q70 -72 96.5 -169.5t26.5 -238.5z" />
<glyph unicode="&#xf4;" horiz-adv-x="1099" d="M727 1227l-178 198l-178 -198h-174l264 329h176l264 -329h-174zM774 520q0 104 -14.5 173t-57.5 112q-59 59 -153 59q-92 0 -152 -59q-43 -43 -57 -111.5t-14 -173.5q0 -104 14 -172.5t57 -111.5q61 -61 152 -62q92 0 153 62q43 43 57.5 111.5t14.5 172.5zM983 520 q0 -141 -25.5 -239.5t-97.5 -169.5q-53 -57 -132 -90t-179 -33t-177 32.5t-132 90.5q-70 74 -96.5 171t-26.5 238t26.5 238.5t96.5 169.5q55 57 132 90t177 33t178 -33t133 -90q70 -72 96.5 -169.5t26.5 -238.5z" />
<glyph unicode="&#xf5;" horiz-adv-x="1099" d="M895 1366q-66 -66 -114 -89.5t-99 -23.5q-43 0 -77 11.5t-77 35.5q-66 39 -114 39q-31 0 -55.5 -11t-63.5 -50l-98 96q66 66 112.5 89.5t100.5 23.5q43 0 75.5 -11.5t77.5 -37.5q63 -39 113 -39q29 0 55.5 12t65.5 51zM774 520q0 104 -14.5 173t-57.5 112q-59 59 -153 59 q-92 0 -152 -59q-43 -43 -57 -111.5t-14 -173.5q0 -104 14 -172.5t57 -111.5q61 -61 152 -62q92 0 153 62q43 43 57.5 111.5t14.5 172.5zM983 520q0 -141 -25.5 -239.5t-97.5 -169.5q-53 -57 -132 -90t-179 -33t-177 32.5t-132 90.5q-70 74 -96.5 171t-26.5 238t26.5 238.5 t96.5 169.5q55 57 132 90t177 33t178 -33t133 -90q70 -72 96.5 -169.5t26.5 -238.5z" />
<glyph unicode="&#xf6;" horiz-adv-x="1099" d="M233 1237v221h189v-221h-189zM676 1237v221h188v-221h-188zM774 520q0 104 -14.5 173t-57.5 112q-59 59 -153 59q-92 0 -152 -59q-43 -43 -57 -111.5t-14 -173.5q0 -104 14 -172.5t57 -111.5q61 -61 152 -62q92 0 153 62q43 43 57.5 111.5t14.5 172.5zM983 520 q0 -141 -25.5 -239.5t-97.5 -169.5q-53 -57 -132 -90t-179 -33t-177 32.5t-132 90.5q-70 74 -96.5 171t-26.5 238t26.5 238.5t96.5 169.5q55 57 132 90t177 33t178 -33t133 -90q70 -72 96.5 -169.5t26.5 -238.5z" />
<glyph unicode="&#xf7;" d="M434 68v223h223v-223h-223zM98 471v195h893v-195h-893zM434 848v223h223v-223h-223z" />
<glyph unicode="&#xf8;" horiz-adv-x="1099" d="M774 520q0 72 -6 126t-25 97l-315 -532q51 -37 121 -37q92 0 153 62q43 43 57.5 111.5t14.5 172.5zM672 829q-53 35 -123 35q-92 0 -152 -59q-43 -43 -57 -111.5t-14 -173.5q0 -72 6 -126t24 -97zM983 520q0 -141 -25.5 -239.5t-97.5 -169.5q-53 -57 -132 -90t-179 -33 q-119 0 -213 51l-76 -129h-141l119 203q-70 72 -95.5 169t-25.5 238t26.5 238.5t96.5 169.5q55 57 132 90t177 33q121 0 215 -52l76 129h141l-121 -200q70 -72 96.5 -169.5t26.5 -238.5z" />
<glyph unicode="&#xf9;" horiz-adv-x="1163" d="M524 1227l-227 332h231l154 -332h-158zM793 0v104q-109 -117 -277 -116q-160 0 -256 94q-57 55 -80.5 127t-23.5 166v663h209v-632q0 -117 58 -174.5t150 -57.5q94 0 154.5 57.5t60.5 174.5v632h209v-1038h-204z" />
<glyph unicode="&#xfa;" horiz-adv-x="1163" d="M627 1227h-158l154 332h231zM793 0v104q-109 -117 -277 -116q-160 0 -256 94q-57 55 -80.5 127t-23.5 166v663h209v-632q0 -117 58 -174.5t150 -57.5q94 0 154.5 57.5t60.5 174.5v632h209v-1038h-204z" />
<glyph unicode="&#xfb;" horiz-adv-x="1163" d="M754 1227l-179 198l-178 -198h-174l264 329h177l264 -329h-174zM793 0v104q-109 -117 -277 -116q-160 0 -256 94q-57 55 -80.5 127t-23.5 166v663h209v-632q0 -117 58 -174.5t150 -57.5q94 0 154.5 57.5t60.5 174.5v632h209v-1038h-204z" />
<glyph unicode="&#xfc;" horiz-adv-x="1163" d="M260 1237v221h189v-221h-189zM702 1237v221h189v-221h-189zM793 0v104q-109 -117 -277 -116q-160 0 -256 94q-57 55 -80.5 127t-23.5 166v663h209v-632q0 -117 58 -174.5t150 -57.5q94 0 154.5 57.5t60.5 174.5v632h209v-1038h-204z" />
<glyph unicode="&#xfd;" horiz-adv-x="958" d="M530 1227h-157l153 332h232zM492 -207q-31 -84 -76 -129q-41 -41 -94.5 -58.5t-118.5 -17.5h-84v189h53q66 0 96.5 23.5t53.5 86.5l57 162l-363 989h222l247 -731l242 731h223z" />
<glyph unicode="&#xfe;" horiz-adv-x="1134" d="M807 520q0 74 -8 136.5t-31 108.5t-64.5 72.5t-111.5 26.5t-112 -25.5t-65.5 -71.5t-31.5 -109.5t-8 -137.5t8 -137.5t31.5 -109.5t65.5 -72.5t112 -26.5t111.5 26.5t64.5 74t31 109.5t8 136zM1016 520q0 -147 -23.5 -258.5t-93.5 -181.5q-43 -43 -108.5 -67.5 t-143.5 -24.5q-86 0 -151.5 26.5t-120.5 91.5v-526h-209v1878h209v-524q55 66 119.5 91.5t152.5 25.5q78 0 143.5 -25t108.5 -68q70 -70 93.5 -180.5t23.5 -257.5z" />
<glyph unicode="&#xff;" horiz-adv-x="958" d="M164 1237v221h188v-221h-188zM606 1237v221h189v-221h-189zM492 -207q-31 -84 -76 -129q-41 -41 -94.5 -58.5t-118.5 -17.5h-84v189h53q66 0 96.5 23.5t53.5 86.5l57 162l-363 989h222l247 -731l242 731h223z" />
<glyph unicode="&#x152;" horiz-adv-x="2000" d="M965 729q0 111 -3.5 184.5t-12.5 122.5t-25.5 82t-44.5 64q-39 43 -96.5 66.5t-120.5 23.5t-120 -23.5t-96 -66.5q-29 -29 -45 -62t-25 -82t-12.5 -122.5t-3.5 -186.5q0 -111 3.5 -184.5t12.5 -123.5t26.5 -83t43.5 -62q39 -43 95.5 -66.5t120.5 -23.5q63 0 120.5 25 t96.5 65q27 31 44 64t26 81t12.5 120.5t3.5 187.5zM965 0v119q-57 -66 -139.5 -98.5t-168.5 -32.5q-227 0 -378 151q-98 98 -123 238q-6 33 -10.5 67.5t-5.5 75.5t-2 91.5t-1 117.5q0 68 1 118t2 91t5.5 75t10.5 68q25 139 123 238q152 152 378 151q92 0 171 -31.5 t137 -99.5v119h921v-196h-700v-431h596v-192h-596v-442h702v-197h-923z" />
<glyph unicode="&#x153;" horiz-adv-x="1765" d="M774 520q0 104 -14.5 173t-57.5 112q-59 59 -153 59q-92 0 -152 -59q-43 -43 -57 -111.5t-14 -173.5q0 -104 14 -172.5t57 -111.5q61 -61 152 -62q92 0 153 62q43 43 57.5 111.5t14.5 172.5zM1446 604q-2 51 -7 80t-20 61q-25 59 -80 95.5t-127 36.5t-125 -36t-79 -96 q-16 -35 -21.5 -64.5t-7.5 -76.5h467zM979 459q0 -135 69.5 -213t194.5 -78q84 0 139.5 24.5t112.5 81.5l133 -124q-43 -43 -84 -74t-87 -50.5t-98 -28.5t-118 -9q-238 0 -358 164q-49 -76 -136.5 -120t-197.5 -44q-100 0 -177 32.5t-132 90.5q-70 74 -96.5 171t-26.5 238 t26.5 238.5t96.5 169.5q55 57 132 90t177 33q113 0 200 -44t136 -122q111 166 327 166q207 0 324 -138q117 -139 117 -362v-92h-674z" />
<glyph unicode="&#x160;" horiz-adv-x="1208" d="M686 1599h-176l-264 330h174l178 -198l178 198h174zM1102 416q0 -199 -146 -314q-145 -115 -378 -114q-168 0 -290 44t-227 148l148 146q78 -76 166 -108t207 -32q143 0 222 58.5t79 165.5q0 96 -58 151q-27 27 -61.5 39t-97.5 23l-86 12l-86 12q-178 25 -277 117 q-106 100 -106 278q0 193 131 310q131 119 356 118q147 0 252.5 -38.5t200.5 -126.5l-142 -140q-63 61 -141 87t-176 26q-125 0 -195.5 -63.5t-70.5 -163.5q0 -86 55 -136q59 -53 164 -67l86 -12l80 -13q100 -16 162.5 -40.5t109.5 -67.5q119 -104 119 -299z" />
<glyph unicode="&#x161;" horiz-adv-x="1021" d="M596 1227h-176l-264 329h174l178 -198l178 198h174zM934 317q0 -80 -32 -141t-88 -103t-136 -63.5t-176 -21.5q-141 0 -245.5 31.5t-190.5 117.5l137 137q57 -59 135 -83.5t164 -24.5q100 0 163.5 37t63.5 106q0 109 -139 123l-84 8l-82 6q-150 10 -228.5 81t-78.5 206 q0 147 110 232q113 86 281 86q123 0 219 -28t166 -89l-131 -133q-94 76 -256 76q-92 0 -140.5 -36t-48.5 -98q0 -51 33 -80.5t111 -37.5l84 -9l80 -6q150 -10 229.5 -84t79.5 -209z" />
<glyph unicode="&#x178;" horiz-adv-x="1114" d="M242 1610v221h188v-221h-188zM684 1610v221h188v-221h-188zM668 600v-600h-222v600l-436 858h242l305 -641l305 641h242z" />
<glyph unicode="&#x192;" horiz-adv-x="849" d="M668 1290q-113 0 -136 -121l-65 -368h207v-160h-236l-186 -1061h-209l186 1061h-168v160h197l68 379q23 121 108 204q90 84 225 84h129v-178h-120z" />
<glyph unicode="&#x2c6;" horiz-adv-x="1024" d="M690 1227l-178 198l-178 -198h-174l264 329h176l264 -329h-174z" />
<glyph unicode="&#x2dc;" horiz-adv-x="1024" d="M858 1366q-66 -66 -114 -89.5t-99 -23.5q-43 0 -76.5 11.5t-76.5 35.5q-66 39 -115 39q-31 0 -55.5 -11t-63.5 -50l-98 96q66 66 112.5 89.5t100.5 23.5q43 0 75.5 -11.5t77.5 -37.5q63 -39 113 -39q29 0 55.5 12t65.5 51z" />
<glyph unicode="&#x2000;" horiz-adv-x="1024" />
<glyph unicode="&#x2001;" horiz-adv-x="2048" />
<glyph unicode="&#x2002;" horiz-adv-x="1024" />
<glyph unicode="&#x2003;" horiz-adv-x="2048" />
<glyph unicode="&#x2004;" horiz-adv-x="681" />
<glyph unicode="&#x2005;" horiz-adv-x="512" />
<glyph unicode="&#x2006;" horiz-adv-x="339" />
<glyph unicode="&#x2007;" horiz-adv-x="339" />
<glyph unicode="&#x2008;" horiz-adv-x="256" />
<glyph unicode="&#x2009;" horiz-adv-x="409" />
<glyph unicode="&#x200a;" horiz-adv-x="112" />
<glyph unicode="&#x2010;" horiz-adv-x="872" d="M137 471v195h598v-195h-598z" />
<glyph unicode="&#x2011;" horiz-adv-x="872" d="M137 471v195h598v-195h-598z" />
<glyph unicode="&#x2012;" horiz-adv-x="872" d="M137 471v195h598v-195h-598z" />
<glyph unicode="&#x2013;" d="M104 471v195h883v-195h-883z" />
<glyph unicode="&#x2014;" horiz-adv-x="1990" d="M137 473v199h1716v-199h-1716z" />
<glyph unicode="&#x2018;" horiz-adv-x="548" d="M160 1245v213l229 191v-404h-229z" />
<glyph unicode="&#x2019;" horiz-adv-x="548" d="M160 1057v401h229v-215z" />
<glyph unicode="&#x201a;" horiz-adv-x="546" d="M160 -188v403h229v-215z" />
<glyph unicode="&#x201c;" horiz-adv-x="940" d="M160 1245v213l229 191v-404h-229zM551 1245v213l229 191v-404h-229z" />
<glyph unicode="&#x201d;" horiz-adv-x="940" d="M160 1057v401h229v-215zM551 1057v401h229v-215z" />
<glyph unicode="&#x201e;" horiz-adv-x="942" d="M160 -188v403h229v-215zM551 -188v403h229v-215z" />
<glyph unicode="&#x2020;" horiz-adv-x="1210" d="M709 874v-874h-209v874h-367v187h367v397h209v-397h368v-187h-368z" />
<glyph unicode="&#x2021;" horiz-adv-x="1210" d="M709 -23v-397h-209v397h-367v189h367v708h-367v187h367v397h209v-397h368v-187h-368v-708h368v-189h-368z" />
<glyph unicode="&#x2022;" horiz-adv-x="1048" d="M858 684q0 -70 -26.5 -130t-71.5 -105.5t-105.5 -72t-130.5 -26.5t-130 26.5t-105 72t-72 105.5t-27 130t27 130t72 105.5t105.5 72t129.5 26.5q70 0 130.5 -26.5t105.5 -72t71.5 -105.5t26.5 -130z" />
<glyph unicode="&#x2026;" horiz-adv-x="1644" d="M160 0v240h239v-240h-239zM702 0v240h240v-240h-240zM1245 0v240h240v-240h-240z" />
<glyph unicode="&#x202f;" horiz-adv-x="409" />
<glyph unicode="&#x2030;" horiz-adv-x="2449" d="M2173 467q0 147 -129 147t-129 -147v-195q0 -147 129 -147t129 147v195zM2331 266q0 -66 -21.5 -117t-60.5 -87.5t-91.5 -56t-113.5 -19.5t-113.5 19.5t-91.5 56t-60.5 88t-21.5 116.5v207q0 63 21.5 115.5t60.5 89.5t91 56.5t114 19.5q61 0 113.5 -19.5t91.5 -56.5 t60.5 -89t21.5 -116v-207zM535 1186q0 147 -129 147t-130 -147v-195q0 -145 130 -145q129 0 129 145v195zM692 985q0 -129 -82 -203.5t-204 -74.5q-123 0 -205 74.5t-82 203.5v207q0 63 21.5 115.5t60.5 89.5t91 56.5t114 19.5q61 0 113 -19.5t91 -56.5t60.5 -89.5 t21.5 -115.5v-207zM602 0h-168l688 1458h166zM1448 467q0 147 -129 147t-129 -147v-195q0 -147 129 -147t129 147v195zM1606 266q0 -66 -21.5 -117t-60.5 -87.5t-91.5 -56t-113.5 -19.5t-113.5 19.5t-91.5 56t-60.5 88t-21.5 116.5v207q0 63 21.5 115.5t60.5 89.5t91 56.5 t114 19.5q61 0 113.5 -19.5t91.5 -56.5t60.5 -89t21.5 -116v-207z" />
<glyph unicode="&#x2039;" horiz-adv-x="694" d="M76 557l471 469v-252l-219 -217l219 -219v-252z" />
<glyph unicode="&#x203a;" horiz-adv-x="694" d="M147 86v252l222 219l-222 217v252l474 -469z" />
<glyph unicode="&#x205f;" horiz-adv-x="512" />
<glyph unicode="&#x20ac;" horiz-adv-x="1394" d="M1272 436q-18 -109 -65.5 -192.5t-116 -140t-155.5 -86t-185 -29.5q-117 0 -211.5 40t-169.5 115q-74 74 -100.5 160t-35.5 205h-145v137h139v176h-139v137h145q8 115 36 200t100 157q76 76 170 115.5t211 39.5q100 0 187 -29.5t155.5 -86t114.5 -140.5t65 -192h-225 q-27 111 -101 181.5t-196 70.5q-131 0 -215 -90q-41 -41 -56.5 -89t-21.5 -137h374v-137h-382v-176h382v-137h-374q6 -92 21.5 -142.5t56.5 -91.5q84 -90 215 -90q123 0 197.5 71t101.5 181h223z" />
<glyph unicode="&#x2122;" horiz-adv-x="1808" d="M473 1317v-733h-156v733h-233v141h625v-141h-236zM1526 584v571l-185 -367h-145l-184 367v-571h-158v874h158l256 -497l258 497h157v-874h-157z" />
<glyph unicode="&#xe000;" horiz-adv-x="1040" d="M0 1040h1040v-1040h-1040v1040z" />
<glyph unicode="&#xfb01;" horiz-adv-x="1212" d="M838 0v1038h209v-1038h-209zM832 1243v221h221v-221h-221zM408 860v-860h-209v860h-119v160h119v160q0 61 18.5 113.5t55 91t90 61t120.5 22.5h131v-178h-92q-115 0 -114 -121v-149h206v-160h-206z" />
<glyph unicode="&#xfb02;" horiz-adv-x="1308" d="M1116 0q-141 0 -212.5 81t-71.5 206v1171h209v-1159q0 -61 25.5 -91t86.5 -30h92v-178h-129zM408 860v-860h-209v860h-119v160h119v160q0 61 18.5 113.5t55 91t90 61t120.5 22.5h131v-178h-92q-115 0 -114 -121v-149h206v-160h-206z" />
<glyph unicode="&#xfb03;" horiz-adv-x="1884" d="M1509 0v1038h209v-1038h-209zM1503 1243v221h221v-221h-221zM1080 860v-860h-209v860h-119v160h119v160q0 61 18.5 113.5t55 91t90 61t120.5 22.5h131v-178h-92q-115 0 -114 -121v-149h206v-160h-206zM408 860v-860h-209v860h-119v160h119v160q0 61 18.5 113.5t55 91 t90 61t120.5 22.5h131v-178h-92q-115 0 -114 -121v-149h206v-160h-206z" />
<glyph unicode="&#xfb04;" horiz-adv-x="1980" d="M1787 0q-141 0 -212.5 81t-71.5 206v1171h209v-1159q0 -61 25.5 -91t86.5 -30h92v-178h-129zM1080 860v-860h-209v860h-119v160h119v160q0 61 18.5 113.5t55 91t90 61t120.5 22.5h131v-178h-92q-115 0 -114 -121v-149h206v-160h-206zM408 860v-860h-209v860h-119v160h119 v160q0 61 18.5 113.5t55 91t90 61t120.5 22.5h131v-178h-92q-115 0 -114 -121v-149h206v-160h-206z" />
</font>
</defs>
</svg>
